G04 #@! TF.GenerationSoftware,KiCad,Pcbnew,(5.1.10)-1*
G04 #@! TF.CreationDate,2021-07-25T13:55:37-07:00*
G04 #@! TF.ProjectId,stat-monitor,73746174-2d6d-46f6-9e69-746f722e6b69,rev?*
G04 #@! TF.SameCoordinates,Original*
G04 #@! TF.FileFunction,Copper,L1,Top*
G04 #@! TF.FilePolarity,Positive*
%FSLAX46Y46*%
G04 Gerber Fmt 4.6, Leading zero omitted, Abs format (unit mm)*
G04 Created by KiCad (PCBNEW (5.1.10)-1) date 2021-07-25 13:55:37*
%MOMM*%
%LPD*%
G01*
G04 APERTURE LIST*
G04 #@! TA.AperFunction,ComponentPad*
%ADD10O,1.700000X1.700000*%
G04 #@! TD*
G04 #@! TA.AperFunction,ComponentPad*
%ADD11R,1.700000X1.700000*%
G04 #@! TD*
G04 #@! TA.AperFunction,SMDPad,CuDef*
%ADD12R,1.600000X0.550000*%
G04 #@! TD*
G04 #@! TA.AperFunction,SMDPad,CuDef*
%ADD13R,0.550000X1.600000*%
G04 #@! TD*
G04 #@! TA.AperFunction,ComponentPad*
%ADD14C,1.400000*%
G04 #@! TD*
G04 #@! TA.AperFunction,ViaPad*
%ADD15C,0.600000*%
G04 #@! TD*
G04 #@! TA.AperFunction,Conductor*
%ADD16C,0.250000*%
G04 #@! TD*
G04 #@! TA.AperFunction,Conductor*
%ADD17C,0.040000*%
G04 #@! TD*
G04 #@! TA.AperFunction,Conductor*
%ADD18C,0.100000*%
G04 #@! TD*
G04 APERTURE END LIST*
D10*
X176990000Y-120300000D03*
X179530000Y-120300000D03*
X182070000Y-120300000D03*
D11*
X184610000Y-120300000D03*
G04 #@! TA.AperFunction,SMDPad,CuDef*
G36*
G01*
X190262500Y-112619500D02*
X190737500Y-112619500D01*
G75*
G02*
X190975000Y-112857000I0J-237500D01*
G01*
X190975000Y-113457000D01*
G75*
G02*
X190737500Y-113694500I-237500J0D01*
G01*
X190262500Y-113694500D01*
G75*
G02*
X190025000Y-113457000I0J237500D01*
G01*
X190025000Y-112857000D01*
G75*
G02*
X190262500Y-112619500I237500J0D01*
G01*
G37*
G04 #@! TD.AperFunction*
G04 #@! TA.AperFunction,SMDPad,CuDef*
G36*
G01*
X190262500Y-114344500D02*
X190737500Y-114344500D01*
G75*
G02*
X190975000Y-114582000I0J-237500D01*
G01*
X190975000Y-115182000D01*
G75*
G02*
X190737500Y-115419500I-237500J0D01*
G01*
X190262500Y-115419500D01*
G75*
G02*
X190025000Y-115182000I0J237500D01*
G01*
X190025000Y-114582000D01*
G75*
G02*
X190262500Y-114344500I237500J0D01*
G01*
G37*
G04 #@! TD.AperFunction*
G04 #@! TA.AperFunction,SMDPad,CuDef*
G36*
G01*
X190737500Y-109683500D02*
X190262500Y-109683500D01*
G75*
G02*
X190025000Y-109446000I0J237500D01*
G01*
X190025000Y-108846000D01*
G75*
G02*
X190262500Y-108608500I237500J0D01*
G01*
X190737500Y-108608500D01*
G75*
G02*
X190975000Y-108846000I0J-237500D01*
G01*
X190975000Y-109446000D01*
G75*
G02*
X190737500Y-109683500I-237500J0D01*
G01*
G37*
G04 #@! TD.AperFunction*
G04 #@! TA.AperFunction,SMDPad,CuDef*
G36*
G01*
X190737500Y-111408500D02*
X190262500Y-111408500D01*
G75*
G02*
X190025000Y-111171000I0J237500D01*
G01*
X190025000Y-110571000D01*
G75*
G02*
X190262500Y-110333500I237500J0D01*
G01*
X190737500Y-110333500D01*
G75*
G02*
X190975000Y-110571000I0J-237500D01*
G01*
X190975000Y-111171000D01*
G75*
G02*
X190737500Y-111408500I-237500J0D01*
G01*
G37*
G04 #@! TD.AperFunction*
G04 #@! TA.AperFunction,SMDPad,CuDef*
G36*
G01*
X177689500Y-116911000D02*
X178164500Y-116911000D01*
G75*
G02*
X178402000Y-117148500I0J-237500D01*
G01*
X178402000Y-117748500D01*
G75*
G02*
X178164500Y-117986000I-237500J0D01*
G01*
X177689500Y-117986000D01*
G75*
G02*
X177452000Y-117748500I0J237500D01*
G01*
X177452000Y-117148500D01*
G75*
G02*
X177689500Y-116911000I237500J0D01*
G01*
G37*
G04 #@! TD.AperFunction*
G04 #@! TA.AperFunction,SMDPad,CuDef*
G36*
G01*
X177689500Y-115186000D02*
X178164500Y-115186000D01*
G75*
G02*
X178402000Y-115423500I0J-237500D01*
G01*
X178402000Y-116023500D01*
G75*
G02*
X178164500Y-116261000I-237500J0D01*
G01*
X177689500Y-116261000D01*
G75*
G02*
X177452000Y-116023500I0J237500D01*
G01*
X177452000Y-115423500D01*
G75*
G02*
X177689500Y-115186000I237500J0D01*
G01*
G37*
G04 #@! TD.AperFunction*
G04 #@! TA.AperFunction,SMDPad,CuDef*
G36*
G01*
X182750000Y-115934500D02*
X182750000Y-115459500D01*
G75*
G02*
X182987500Y-115222000I237500J0D01*
G01*
X183587500Y-115222000D01*
G75*
G02*
X183825000Y-115459500I0J-237500D01*
G01*
X183825000Y-115934500D01*
G75*
G02*
X183587500Y-116172000I-237500J0D01*
G01*
X182987500Y-116172000D01*
G75*
G02*
X182750000Y-115934500I0J237500D01*
G01*
G37*
G04 #@! TD.AperFunction*
G04 #@! TA.AperFunction,SMDPad,CuDef*
G36*
G01*
X184475000Y-115934500D02*
X184475000Y-115459500D01*
G75*
G02*
X184712500Y-115222000I237500J0D01*
G01*
X185312500Y-115222000D01*
G75*
G02*
X185550000Y-115459500I0J-237500D01*
G01*
X185550000Y-115934500D01*
G75*
G02*
X185312500Y-116172000I-237500J0D01*
G01*
X184712500Y-116172000D01*
G75*
G02*
X184475000Y-115934500I0J237500D01*
G01*
G37*
G04 #@! TD.AperFunction*
G04 #@! TA.AperFunction,SMDPad,CuDef*
G36*
G01*
X184501500Y-117585500D02*
X184501500Y-117110500D01*
G75*
G02*
X184739000Y-116873000I237500J0D01*
G01*
X185339000Y-116873000D01*
G75*
G02*
X185576500Y-117110500I0J-237500D01*
G01*
X185576500Y-117585500D01*
G75*
G02*
X185339000Y-117823000I-237500J0D01*
G01*
X184739000Y-117823000D01*
G75*
G02*
X184501500Y-117585500I0J237500D01*
G01*
G37*
G04 #@! TD.AperFunction*
G04 #@! TA.AperFunction,SMDPad,CuDef*
G36*
G01*
X182776500Y-117585500D02*
X182776500Y-117110500D01*
G75*
G02*
X183014000Y-116873000I237500J0D01*
G01*
X183614000Y-116873000D01*
G75*
G02*
X183851500Y-117110500I0J-237500D01*
G01*
X183851500Y-117585500D01*
G75*
G02*
X183614000Y-117823000I-237500J0D01*
G01*
X183014000Y-117823000D01*
G75*
G02*
X182776500Y-117585500I0J237500D01*
G01*
G37*
G04 #@! TD.AperFunction*
G04 #@! TA.AperFunction,SMDPad,CuDef*
G36*
G01*
X185697500Y-107679500D02*
X185697500Y-107204500D01*
G75*
G02*
X185935000Y-106967000I237500J0D01*
G01*
X186535000Y-106967000D01*
G75*
G02*
X186772500Y-107204500I0J-237500D01*
G01*
X186772500Y-107679500D01*
G75*
G02*
X186535000Y-107917000I-237500J0D01*
G01*
X185935000Y-107917000D01*
G75*
G02*
X185697500Y-107679500I0J237500D01*
G01*
G37*
G04 #@! TD.AperFunction*
G04 #@! TA.AperFunction,SMDPad,CuDef*
G36*
G01*
X187422500Y-107679500D02*
X187422500Y-107204500D01*
G75*
G02*
X187660000Y-106967000I237500J0D01*
G01*
X188260000Y-106967000D01*
G75*
G02*
X188497500Y-107204500I0J-237500D01*
G01*
X188497500Y-107679500D01*
G75*
G02*
X188260000Y-107917000I-237500J0D01*
G01*
X187660000Y-107917000D01*
G75*
G02*
X187422500Y-107679500I0J237500D01*
G01*
G37*
G04 #@! TD.AperFunction*
G04 #@! TA.AperFunction,SMDPad,CuDef*
G36*
G01*
X188204000Y-120908500D02*
X186954000Y-120908500D01*
G75*
G02*
X186704000Y-120658500I0J250000D01*
G01*
X186704000Y-119733500D01*
G75*
G02*
X186954000Y-119483500I250000J0D01*
G01*
X188204000Y-119483500D01*
G75*
G02*
X188454000Y-119733500I0J-250000D01*
G01*
X188454000Y-120658500D01*
G75*
G02*
X188204000Y-120908500I-250000J0D01*
G01*
G37*
G04 #@! TD.AperFunction*
G04 #@! TA.AperFunction,SMDPad,CuDef*
G36*
G01*
X188204000Y-117933500D02*
X186954000Y-117933500D01*
G75*
G02*
X186704000Y-117683500I0J250000D01*
G01*
X186704000Y-116758500D01*
G75*
G02*
X186954000Y-116508500I250000J0D01*
G01*
X188204000Y-116508500D01*
G75*
G02*
X188454000Y-116758500I0J-250000D01*
G01*
X188454000Y-117683500D01*
G75*
G02*
X188204000Y-117933500I-250000J0D01*
G01*
G37*
G04 #@! TD.AperFunction*
X188420000Y-101981000D03*
D10*
X185880000Y-101981000D03*
X183340000Y-101981000D03*
X180800000Y-101981000D03*
X178260000Y-101981000D03*
X175720000Y-101981000D03*
X173180000Y-101981000D03*
G04 #@! TA.AperFunction,SMDPad,CuDef*
G36*
G01*
X179762500Y-115200000D02*
X180237500Y-115200000D01*
G75*
G02*
X180475000Y-115437500I0J-237500D01*
G01*
X180475000Y-115937500D01*
G75*
G02*
X180237500Y-116175000I-237500J0D01*
G01*
X179762500Y-116175000D01*
G75*
G02*
X179525000Y-115937500I0J237500D01*
G01*
X179525000Y-115437500D01*
G75*
G02*
X179762500Y-115200000I237500J0D01*
G01*
G37*
G04 #@! TD.AperFunction*
G04 #@! TA.AperFunction,SMDPad,CuDef*
G36*
G01*
X179762500Y-117025000D02*
X180237500Y-117025000D01*
G75*
G02*
X180475000Y-117262500I0J-237500D01*
G01*
X180475000Y-117762500D01*
G75*
G02*
X180237500Y-118000000I-237500J0D01*
G01*
X179762500Y-118000000D01*
G75*
G02*
X179525000Y-117762500I0J237500D01*
G01*
X179525000Y-117262500D01*
G75*
G02*
X179762500Y-117025000I237500J0D01*
G01*
G37*
G04 #@! TD.AperFunction*
G04 #@! TA.AperFunction,SMDPad,CuDef*
G36*
G01*
X181362500Y-117025000D02*
X181837500Y-117025000D01*
G75*
G02*
X182075000Y-117262500I0J-237500D01*
G01*
X182075000Y-117762500D01*
G75*
G02*
X181837500Y-118000000I-237500J0D01*
G01*
X181362500Y-118000000D01*
G75*
G02*
X181125000Y-117762500I0J237500D01*
G01*
X181125000Y-117262500D01*
G75*
G02*
X181362500Y-117025000I237500J0D01*
G01*
G37*
G04 #@! TD.AperFunction*
G04 #@! TA.AperFunction,SMDPad,CuDef*
G36*
G01*
X181362500Y-115200000D02*
X181837500Y-115200000D01*
G75*
G02*
X182075000Y-115437500I0J-237500D01*
G01*
X182075000Y-115937500D01*
G75*
G02*
X181837500Y-116175000I-237500J0D01*
G01*
X181362500Y-116175000D01*
G75*
G02*
X181125000Y-115937500I0J237500D01*
G01*
X181125000Y-115437500D01*
G75*
G02*
X181362500Y-115200000I237500J0D01*
G01*
G37*
G04 #@! TD.AperFunction*
G04 #@! TA.AperFunction,SMDPad,CuDef*
G36*
G01*
X172947500Y-114283500D02*
X172947500Y-113808500D01*
G75*
G02*
X173185000Y-113571000I237500J0D01*
G01*
X173685000Y-113571000D01*
G75*
G02*
X173922500Y-113808500I0J-237500D01*
G01*
X173922500Y-114283500D01*
G75*
G02*
X173685000Y-114521000I-237500J0D01*
G01*
X173185000Y-114521000D01*
G75*
G02*
X172947500Y-114283500I0J237500D01*
G01*
G37*
G04 #@! TD.AperFunction*
G04 #@! TA.AperFunction,SMDPad,CuDef*
G36*
G01*
X174772500Y-114283500D02*
X174772500Y-113808500D01*
G75*
G02*
X175010000Y-113571000I237500J0D01*
G01*
X175510000Y-113571000D01*
G75*
G02*
X175747500Y-113808500I0J-237500D01*
G01*
X175747500Y-114283500D01*
G75*
G02*
X175510000Y-114521000I-237500J0D01*
G01*
X175010000Y-114521000D01*
G75*
G02*
X174772500Y-114283500I0J237500D01*
G01*
G37*
G04 #@! TD.AperFunction*
G04 #@! TA.AperFunction,SMDPad,CuDef*
G36*
G01*
X185018500Y-104791500D02*
X185018500Y-105266500D01*
G75*
G02*
X184781000Y-105504000I-237500J0D01*
G01*
X184281000Y-105504000D01*
G75*
G02*
X184043500Y-105266500I0J237500D01*
G01*
X184043500Y-104791500D01*
G75*
G02*
X184281000Y-104554000I237500J0D01*
G01*
X184781000Y-104554000D01*
G75*
G02*
X185018500Y-104791500I0J-237500D01*
G01*
G37*
G04 #@! TD.AperFunction*
G04 #@! TA.AperFunction,SMDPad,CuDef*
G36*
G01*
X186843500Y-104791500D02*
X186843500Y-105266500D01*
G75*
G02*
X186606000Y-105504000I-237500J0D01*
G01*
X186106000Y-105504000D01*
G75*
G02*
X185868500Y-105266500I0J237500D01*
G01*
X185868500Y-104791500D01*
G75*
G02*
X186106000Y-104554000I237500J0D01*
G01*
X186606000Y-104554000D01*
G75*
G02*
X186843500Y-104791500I0J-237500D01*
G01*
G37*
G04 #@! TD.AperFunction*
G04 #@! TA.AperFunction,SMDPad,CuDef*
G36*
G01*
X173031999Y-109398000D02*
X173932001Y-109398000D01*
G75*
G02*
X174182000Y-109647999I0J-249999D01*
G01*
X174182000Y-110348001D01*
G75*
G02*
X173932001Y-110598000I-249999J0D01*
G01*
X173031999Y-110598000D01*
G75*
G02*
X172782000Y-110348001I0J249999D01*
G01*
X172782000Y-109647999D01*
G75*
G02*
X173031999Y-109398000I249999J0D01*
G01*
G37*
G04 #@! TD.AperFunction*
G04 #@! TA.AperFunction,SMDPad,CuDef*
G36*
G01*
X173031999Y-111398000D02*
X173932001Y-111398000D01*
G75*
G02*
X174182000Y-111647999I0J-249999D01*
G01*
X174182000Y-112348001D01*
G75*
G02*
X173932001Y-112598000I-249999J0D01*
G01*
X173031999Y-112598000D01*
G75*
G02*
X172782000Y-112348001I0J249999D01*
G01*
X172782000Y-111647999D01*
G75*
G02*
X173031999Y-111398000I249999J0D01*
G01*
G37*
G04 #@! TD.AperFunction*
D12*
X184250000Y-112300000D03*
X184250000Y-111500000D03*
X184250000Y-110700000D03*
X184250000Y-109900000D03*
X184250000Y-109100000D03*
X184250000Y-108300000D03*
X184250000Y-107500000D03*
X184250000Y-106700000D03*
D13*
X182800000Y-105250000D03*
X182000000Y-105250000D03*
X181200000Y-105250000D03*
X180400000Y-105250000D03*
X179600000Y-105250000D03*
X178800000Y-105250000D03*
X178000000Y-105250000D03*
X177200000Y-105250000D03*
D12*
X175750000Y-106700000D03*
X175750000Y-107500000D03*
X175750000Y-108300000D03*
X175750000Y-109100000D03*
X175750000Y-109900000D03*
X175750000Y-110700000D03*
X175750000Y-111500000D03*
X175750000Y-112300000D03*
D13*
X177200000Y-113750000D03*
X178000000Y-113750000D03*
X178800000Y-113750000D03*
X179600000Y-113750000D03*
X180400000Y-113750000D03*
X181200000Y-113750000D03*
X182000000Y-113750000D03*
X182800000Y-113750000D03*
D14*
X187579000Y-113244000D03*
X187579000Y-110744000D03*
D15*
X184531000Y-114554000D03*
X173482000Y-108712000D03*
X188849000Y-115316000D03*
X188849000Y-108839000D03*
X187579000Y-105029000D03*
X189103000Y-107442000D03*
X177927000Y-118745000D03*
X176276000Y-113284000D03*
X177292000Y-112268000D03*
D16*
X186635000Y-112300000D02*
X187579000Y-113244000D01*
X184250000Y-112300000D02*
X186635000Y-112300000D01*
X190413000Y-113244000D02*
X190500000Y-113157000D01*
X187579000Y-113244000D02*
X190413000Y-113244000D01*
X184250000Y-110700000D02*
X185845000Y-110700000D01*
X190500000Y-109146000D02*
X189558000Y-109146000D01*
X190500000Y-114882000D02*
X189537000Y-114882000D01*
X185039000Y-115723500D02*
X185012500Y-115697000D01*
X185039000Y-117348000D02*
X185039000Y-115723500D01*
X185012500Y-115035500D02*
X184531000Y-114554000D01*
X185012500Y-115697000D02*
X185012500Y-115035500D01*
X173482000Y-109998000D02*
X173482000Y-108712000D01*
X186356000Y-105029000D02*
X187579000Y-105029000D01*
X179600000Y-114686910D02*
X179600000Y-113750000D01*
X178943000Y-115343910D02*
X179600000Y-114686910D01*
X178943000Y-116713000D02*
X178943000Y-115343910D01*
X178207500Y-117448500D02*
X178943000Y-116713000D01*
X177927000Y-117448500D02*
X178207500Y-117448500D01*
X187960000Y-107442000D02*
X189103000Y-107442000D01*
X177927000Y-117448500D02*
X177927000Y-118745000D01*
X186823000Y-111500000D02*
X187579000Y-110744000D01*
X184250000Y-111500000D02*
X186823000Y-111500000D01*
X190373000Y-110744000D02*
X190500000Y-110871000D01*
X187579000Y-110744000D02*
X190373000Y-110744000D01*
X178800000Y-114850500D02*
X178800000Y-113750000D01*
X177927000Y-115723500D02*
X178800000Y-114850500D01*
X183314000Y-114264000D02*
X182800000Y-113750000D01*
X183314000Y-117348000D02*
X183314000Y-114264000D01*
X182800000Y-113750000D02*
X182000000Y-113750000D01*
X183470000Y-109900000D02*
X184250000Y-109900000D01*
X182800000Y-110570000D02*
X183470000Y-109900000D01*
X186690000Y-118491000D02*
X187579000Y-117602000D01*
X184457000Y-118491000D02*
X186690000Y-118491000D01*
X183314000Y-117348000D02*
X184457000Y-118491000D01*
X175514000Y-114046000D02*
X176276000Y-113284000D01*
X175260000Y-114046000D02*
X175514000Y-114046000D01*
X182753000Y-112268000D02*
X182800000Y-112221000D01*
X177292000Y-112268000D02*
X182753000Y-112268000D01*
X182800000Y-112221000D02*
X182800000Y-110570000D01*
X182800000Y-113750000D02*
X182800000Y-112221000D01*
X186235000Y-108659000D02*
X186235000Y-107442000D01*
X184994000Y-109900000D02*
X186235000Y-108659000D01*
X184250000Y-109900000D02*
X184994000Y-109900000D01*
X185420000Y-102441000D02*
X185880000Y-101981000D01*
X185420000Y-106627000D02*
X185420000Y-102441000D01*
X186235000Y-107442000D02*
X185420000Y-106627000D01*
X187302000Y-120300000D02*
X187579000Y-120577000D01*
X184610000Y-120300000D02*
X187302000Y-120300000D01*
X178000000Y-105250000D02*
X178000000Y-104200000D01*
X178000000Y-104200000D02*
X178562489Y-103637511D01*
X178562489Y-103637511D02*
X179779900Y-103637511D01*
X179779900Y-103637511D02*
X179785411Y-103632000D01*
X181689000Y-103632000D02*
X183340000Y-101981000D01*
X179785411Y-103632000D02*
X181689000Y-103632000D01*
X177200000Y-105250000D02*
X176751000Y-105250000D01*
X176751000Y-105250000D02*
X176403000Y-104902000D01*
X176403000Y-104902000D02*
X176403000Y-104394000D01*
X176403000Y-104394000D02*
X177609500Y-103187500D01*
X177609500Y-103187500D02*
X179593500Y-103187500D01*
X179593500Y-103187500D02*
X180800000Y-101981000D01*
X177927000Y-101981000D02*
X178260000Y-101981000D01*
X174117000Y-105791000D02*
X177927000Y-101981000D01*
X174117000Y-106989000D02*
X174117000Y-105791000D01*
X174628000Y-107500000D02*
X174117000Y-106989000D01*
X175750000Y-107500000D02*
X174628000Y-107500000D01*
X173435000Y-112045000D02*
X173482000Y-111998000D01*
X173435000Y-114046000D02*
X173435000Y-112045000D01*
X173784000Y-112300000D02*
X173482000Y-111998000D01*
X175750000Y-112300000D02*
X173784000Y-112300000D01*
X183584011Y-104082011D02*
X184531000Y-105029000D01*
X180016989Y-104082011D02*
X183584011Y-104082011D01*
X179600000Y-104499000D02*
X180016989Y-104082011D01*
X179600000Y-105250000D02*
X179600000Y-104499000D01*
X181600000Y-119830000D02*
X182070000Y-120300000D01*
X181600000Y-117512500D02*
X181600000Y-119830000D01*
X180000000Y-119830000D02*
X179530000Y-120300000D01*
X180000000Y-117512500D02*
X180000000Y-119830000D01*
X180400000Y-115287500D02*
X180400000Y-113750000D01*
X180000000Y-115687500D02*
X180400000Y-115287500D01*
X181200000Y-115287500D02*
X181200000Y-113750000D01*
X181600000Y-115687500D02*
X181200000Y-115287500D01*
D17*
X191416370Y-115804000D02*
X186921664Y-115804000D01*
X185911164Y-114582000D01*
X189803936Y-114582000D01*
X189803936Y-115182000D01*
X189812747Y-115271461D01*
X189838842Y-115357485D01*
X189881218Y-115436765D01*
X189938246Y-115506254D01*
X190007735Y-115563282D01*
X190087015Y-115605658D01*
X190173039Y-115631753D01*
X190262500Y-115640564D01*
X190737500Y-115640564D01*
X190826961Y-115631753D01*
X190912985Y-115605658D01*
X190992265Y-115563282D01*
X191061754Y-115506254D01*
X191118782Y-115436765D01*
X191161158Y-115357485D01*
X191187253Y-115271461D01*
X191196064Y-115182000D01*
X191196064Y-114582000D01*
X191187253Y-114492539D01*
X191161158Y-114406515D01*
X191118782Y-114327235D01*
X191061754Y-114257746D01*
X190992265Y-114200718D01*
X190912985Y-114158342D01*
X190826961Y-114132247D01*
X190737500Y-114123436D01*
X190262500Y-114123436D01*
X190173039Y-114132247D01*
X190087015Y-114158342D01*
X190007735Y-114200718D01*
X189938246Y-114257746D01*
X189881218Y-114327235D01*
X189838842Y-114406515D01*
X189812747Y-114492539D01*
X189803936Y-114582000D01*
X185911164Y-114582000D01*
X185567000Y-114165802D01*
X185567000Y-112645000D01*
X186492097Y-112645000D01*
X186731960Y-112884863D01*
X186694356Y-112975646D01*
X186659000Y-113153388D01*
X186659000Y-113334612D01*
X186694356Y-113512354D01*
X186763707Y-113679783D01*
X186864390Y-113830466D01*
X186992534Y-113958610D01*
X187143217Y-114059293D01*
X187310646Y-114128644D01*
X187488388Y-114164000D01*
X187669612Y-114164000D01*
X187847354Y-114128644D01*
X188014783Y-114059293D01*
X188165466Y-113958610D01*
X188293610Y-113830466D01*
X188394293Y-113679783D01*
X188431896Y-113589000D01*
X189825651Y-113589000D01*
X189838842Y-113632485D01*
X189881218Y-113711765D01*
X189938246Y-113781254D01*
X190007735Y-113838282D01*
X190087015Y-113880658D01*
X190173039Y-113906753D01*
X190262500Y-113915564D01*
X190737500Y-113915564D01*
X190826961Y-113906753D01*
X190912985Y-113880658D01*
X190992265Y-113838282D01*
X191061754Y-113781254D01*
X191118782Y-113711765D01*
X191161158Y-113632485D01*
X191187253Y-113546461D01*
X191196064Y-113457000D01*
X191196064Y-112857000D01*
X191187253Y-112767539D01*
X191161158Y-112681515D01*
X191118782Y-112602235D01*
X191061754Y-112532746D01*
X190992265Y-112475718D01*
X190912985Y-112433342D01*
X190826961Y-112407247D01*
X190737500Y-112398436D01*
X190262500Y-112398436D01*
X190173039Y-112407247D01*
X190087015Y-112433342D01*
X190007735Y-112475718D01*
X189938246Y-112532746D01*
X189881218Y-112602235D01*
X189838842Y-112681515D01*
X189812747Y-112767539D01*
X189803936Y-112857000D01*
X189803936Y-112899000D01*
X188431896Y-112899000D01*
X188394293Y-112808217D01*
X188293610Y-112657534D01*
X188165466Y-112529390D01*
X188014783Y-112428707D01*
X187847354Y-112359356D01*
X187669612Y-112324000D01*
X187488388Y-112324000D01*
X187310646Y-112359356D01*
X187219863Y-112396960D01*
X186890938Y-112068035D01*
X186880132Y-112054868D01*
X186827599Y-112011755D01*
X186767664Y-111979720D01*
X186702632Y-111959992D01*
X186651946Y-111955000D01*
X186651938Y-111955000D01*
X186635000Y-111953332D01*
X186618062Y-111955000D01*
X185567000Y-111955000D01*
X185567000Y-111845000D01*
X186806062Y-111845000D01*
X186823000Y-111846668D01*
X186839938Y-111845000D01*
X186839946Y-111845000D01*
X186890632Y-111840008D01*
X186955664Y-111820280D01*
X187015599Y-111788245D01*
X187068132Y-111745132D01*
X187078938Y-111731965D01*
X187219863Y-111591041D01*
X187310646Y-111628644D01*
X187488388Y-111664000D01*
X187669612Y-111664000D01*
X187847354Y-111628644D01*
X188014783Y-111559293D01*
X188165466Y-111458610D01*
X188293610Y-111330466D01*
X188394293Y-111179783D01*
X188431896Y-111089000D01*
X189803936Y-111089000D01*
X189803936Y-111171000D01*
X189812747Y-111260461D01*
X189838842Y-111346485D01*
X189881218Y-111425765D01*
X189938246Y-111495254D01*
X190007735Y-111552282D01*
X190087015Y-111594658D01*
X190173039Y-111620753D01*
X190262500Y-111629564D01*
X190737500Y-111629564D01*
X190826961Y-111620753D01*
X190912985Y-111594658D01*
X190992265Y-111552282D01*
X191061754Y-111495254D01*
X191118782Y-111425765D01*
X191161158Y-111346485D01*
X191187253Y-111260461D01*
X191196064Y-111171000D01*
X191196064Y-110571000D01*
X191187253Y-110481539D01*
X191161158Y-110395515D01*
X191118782Y-110316235D01*
X191061754Y-110246746D01*
X190992265Y-110189718D01*
X190912985Y-110147342D01*
X190826961Y-110121247D01*
X190737500Y-110112436D01*
X190262500Y-110112436D01*
X190173039Y-110121247D01*
X190087015Y-110147342D01*
X190007735Y-110189718D01*
X189938246Y-110246746D01*
X189881218Y-110316235D01*
X189838842Y-110395515D01*
X189837785Y-110399000D01*
X188431896Y-110399000D01*
X188394293Y-110308217D01*
X188293610Y-110157534D01*
X188165466Y-110029390D01*
X188014783Y-109928707D01*
X187847354Y-109859356D01*
X187669612Y-109824000D01*
X187488388Y-109824000D01*
X187310646Y-109859356D01*
X187143217Y-109928707D01*
X186992534Y-110029390D01*
X186864390Y-110157534D01*
X186763707Y-110308217D01*
X186694356Y-110475646D01*
X186659000Y-110653388D01*
X186659000Y-110834612D01*
X186694356Y-111012354D01*
X186731959Y-111103137D01*
X186680097Y-111155000D01*
X185567000Y-111155000D01*
X185567000Y-110116854D01*
X186747079Y-108846000D01*
X189803936Y-108846000D01*
X189803936Y-109446000D01*
X189812747Y-109535461D01*
X189838842Y-109621485D01*
X189881218Y-109700765D01*
X189938246Y-109770254D01*
X190007735Y-109827282D01*
X190087015Y-109869658D01*
X190173039Y-109895753D01*
X190262500Y-109904564D01*
X190737500Y-109904564D01*
X190826961Y-109895753D01*
X190912985Y-109869658D01*
X190992265Y-109827282D01*
X191061754Y-109770254D01*
X191118782Y-109700765D01*
X191161158Y-109621485D01*
X191187253Y-109535461D01*
X191196064Y-109446000D01*
X191196064Y-108846000D01*
X191187253Y-108756539D01*
X191161158Y-108670515D01*
X191118782Y-108591235D01*
X191061754Y-108521746D01*
X190992265Y-108464718D01*
X190912985Y-108422342D01*
X190826961Y-108396247D01*
X190737500Y-108387436D01*
X190262500Y-108387436D01*
X190173039Y-108396247D01*
X190087015Y-108422342D01*
X190007735Y-108464718D01*
X189938246Y-108521746D01*
X189881218Y-108591235D01*
X189838842Y-108670515D01*
X189812747Y-108756539D01*
X189803936Y-108846000D01*
X186747079Y-108846000D01*
X187206722Y-108351000D01*
X191321628Y-108351000D01*
X191416370Y-115804000D01*
G04 #@! TA.AperFunction,Conductor*
D18*
G36*
X191416370Y-115804000D02*
G01*
X186921664Y-115804000D01*
X185911164Y-114582000D01*
X189803936Y-114582000D01*
X189803936Y-115182000D01*
X189812747Y-115271461D01*
X189838842Y-115357485D01*
X189881218Y-115436765D01*
X189938246Y-115506254D01*
X190007735Y-115563282D01*
X190087015Y-115605658D01*
X190173039Y-115631753D01*
X190262500Y-115640564D01*
X190737500Y-115640564D01*
X190826961Y-115631753D01*
X190912985Y-115605658D01*
X190992265Y-115563282D01*
X191061754Y-115506254D01*
X191118782Y-115436765D01*
X191161158Y-115357485D01*
X191187253Y-115271461D01*
X191196064Y-115182000D01*
X191196064Y-114582000D01*
X191187253Y-114492539D01*
X191161158Y-114406515D01*
X191118782Y-114327235D01*
X191061754Y-114257746D01*
X190992265Y-114200718D01*
X190912985Y-114158342D01*
X190826961Y-114132247D01*
X190737500Y-114123436D01*
X190262500Y-114123436D01*
X190173039Y-114132247D01*
X190087015Y-114158342D01*
X190007735Y-114200718D01*
X189938246Y-114257746D01*
X189881218Y-114327235D01*
X189838842Y-114406515D01*
X189812747Y-114492539D01*
X189803936Y-114582000D01*
X185911164Y-114582000D01*
X185567000Y-114165802D01*
X185567000Y-112645000D01*
X186492097Y-112645000D01*
X186731960Y-112884863D01*
X186694356Y-112975646D01*
X186659000Y-113153388D01*
X186659000Y-113334612D01*
X186694356Y-113512354D01*
X186763707Y-113679783D01*
X186864390Y-113830466D01*
X186992534Y-113958610D01*
X187143217Y-114059293D01*
X187310646Y-114128644D01*
X187488388Y-114164000D01*
X187669612Y-114164000D01*
X187847354Y-114128644D01*
X188014783Y-114059293D01*
X188165466Y-113958610D01*
X188293610Y-113830466D01*
X188394293Y-113679783D01*
X188431896Y-113589000D01*
X189825651Y-113589000D01*
X189838842Y-113632485D01*
X189881218Y-113711765D01*
X189938246Y-113781254D01*
X190007735Y-113838282D01*
X190087015Y-113880658D01*
X190173039Y-113906753D01*
X190262500Y-113915564D01*
X190737500Y-113915564D01*
X190826961Y-113906753D01*
X190912985Y-113880658D01*
X190992265Y-113838282D01*
X191061754Y-113781254D01*
X191118782Y-113711765D01*
X191161158Y-113632485D01*
X191187253Y-113546461D01*
X191196064Y-113457000D01*
X191196064Y-112857000D01*
X191187253Y-112767539D01*
X191161158Y-112681515D01*
X191118782Y-112602235D01*
X191061754Y-112532746D01*
X190992265Y-112475718D01*
X190912985Y-112433342D01*
X190826961Y-112407247D01*
X190737500Y-112398436D01*
X190262500Y-112398436D01*
X190173039Y-112407247D01*
X190087015Y-112433342D01*
X190007735Y-112475718D01*
X189938246Y-112532746D01*
X189881218Y-112602235D01*
X189838842Y-112681515D01*
X189812747Y-112767539D01*
X189803936Y-112857000D01*
X189803936Y-112899000D01*
X188431896Y-112899000D01*
X188394293Y-112808217D01*
X188293610Y-112657534D01*
X188165466Y-112529390D01*
X188014783Y-112428707D01*
X187847354Y-112359356D01*
X187669612Y-112324000D01*
X187488388Y-112324000D01*
X187310646Y-112359356D01*
X187219863Y-112396960D01*
X186890938Y-112068035D01*
X186880132Y-112054868D01*
X186827599Y-112011755D01*
X186767664Y-111979720D01*
X186702632Y-111959992D01*
X186651946Y-111955000D01*
X186651938Y-111955000D01*
X186635000Y-111953332D01*
X186618062Y-111955000D01*
X185567000Y-111955000D01*
X185567000Y-111845000D01*
X186806062Y-111845000D01*
X186823000Y-111846668D01*
X186839938Y-111845000D01*
X186839946Y-111845000D01*
X186890632Y-111840008D01*
X186955664Y-111820280D01*
X187015599Y-111788245D01*
X187068132Y-111745132D01*
X187078938Y-111731965D01*
X187219863Y-111591041D01*
X187310646Y-111628644D01*
X187488388Y-111664000D01*
X187669612Y-111664000D01*
X187847354Y-111628644D01*
X188014783Y-111559293D01*
X188165466Y-111458610D01*
X188293610Y-111330466D01*
X188394293Y-111179783D01*
X188431896Y-111089000D01*
X189803936Y-111089000D01*
X189803936Y-111171000D01*
X189812747Y-111260461D01*
X189838842Y-111346485D01*
X189881218Y-111425765D01*
X189938246Y-111495254D01*
X190007735Y-111552282D01*
X190087015Y-111594658D01*
X190173039Y-111620753D01*
X190262500Y-111629564D01*
X190737500Y-111629564D01*
X190826961Y-111620753D01*
X190912985Y-111594658D01*
X190992265Y-111552282D01*
X191061754Y-111495254D01*
X191118782Y-111425765D01*
X191161158Y-111346485D01*
X191187253Y-111260461D01*
X191196064Y-111171000D01*
X191196064Y-110571000D01*
X191187253Y-110481539D01*
X191161158Y-110395515D01*
X191118782Y-110316235D01*
X191061754Y-110246746D01*
X190992265Y-110189718D01*
X190912985Y-110147342D01*
X190826961Y-110121247D01*
X190737500Y-110112436D01*
X190262500Y-110112436D01*
X190173039Y-110121247D01*
X190087015Y-110147342D01*
X190007735Y-110189718D01*
X189938246Y-110246746D01*
X189881218Y-110316235D01*
X189838842Y-110395515D01*
X189837785Y-110399000D01*
X188431896Y-110399000D01*
X188394293Y-110308217D01*
X188293610Y-110157534D01*
X188165466Y-110029390D01*
X188014783Y-109928707D01*
X187847354Y-109859356D01*
X187669612Y-109824000D01*
X187488388Y-109824000D01*
X187310646Y-109859356D01*
X187143217Y-109928707D01*
X186992534Y-110029390D01*
X186864390Y-110157534D01*
X186763707Y-110308217D01*
X186694356Y-110475646D01*
X186659000Y-110653388D01*
X186659000Y-110834612D01*
X186694356Y-111012354D01*
X186731959Y-111103137D01*
X186680097Y-111155000D01*
X185567000Y-111155000D01*
X185567000Y-110116854D01*
X186747079Y-108846000D01*
X189803936Y-108846000D01*
X189803936Y-109446000D01*
X189812747Y-109535461D01*
X189838842Y-109621485D01*
X189881218Y-109700765D01*
X189938246Y-109770254D01*
X190007735Y-109827282D01*
X190087015Y-109869658D01*
X190173039Y-109895753D01*
X190262500Y-109904564D01*
X190737500Y-109904564D01*
X190826961Y-109895753D01*
X190912985Y-109869658D01*
X190992265Y-109827282D01*
X191061754Y-109770254D01*
X191118782Y-109700765D01*
X191161158Y-109621485D01*
X191187253Y-109535461D01*
X191196064Y-109446000D01*
X191196064Y-108846000D01*
X191187253Y-108756539D01*
X191161158Y-108670515D01*
X191118782Y-108591235D01*
X191061754Y-108521746D01*
X190992265Y-108464718D01*
X190912985Y-108422342D01*
X190826961Y-108396247D01*
X190737500Y-108387436D01*
X190262500Y-108387436D01*
X190173039Y-108396247D01*
X190087015Y-108422342D01*
X190007735Y-108464718D01*
X189938246Y-108521746D01*
X189881218Y-108591235D01*
X189838842Y-108670515D01*
X189812747Y-108756539D01*
X189803936Y-108846000D01*
X186747079Y-108846000D01*
X187206722Y-108351000D01*
X191321628Y-108351000D01*
X191416370Y-115804000D01*
G37*
G04 #@! TD.AperFunction*
M02*
