G04 #@! TF.GenerationSoftware,KiCad,Pcbnew,(5.1.10)-1*
G04 #@! TF.CreationDate,2021-07-25T13:55:37-07:00*
G04 #@! TF.ProjectId,stat-monitor,73746174-2d6d-46f6-9e69-746f722e6b69,rev?*
G04 #@! TF.SameCoordinates,Original*
G04 #@! TF.FileFunction,Copper,L2,Bot*
G04 #@! TF.FilePolarity,Positive*
%FSLAX46Y46*%
G04 Gerber Fmt 4.6, Leading zero omitted, Abs format (unit mm)*
G04 Created by KiCad (PCBNEW (5.1.10)-1) date 2021-07-25 13:55:37*
%MOMM*%
%LPD*%
G01*
G04 APERTURE LIST*
G04 #@! TA.AperFunction,ComponentPad*
%ADD10O,1.700000X1.700000*%
G04 #@! TD*
G04 #@! TA.AperFunction,ComponentPad*
%ADD11R,1.700000X1.700000*%
G04 #@! TD*
G04 #@! TA.AperFunction,ComponentPad*
%ADD12C,1.400000*%
G04 #@! TD*
G04 #@! TA.AperFunction,ViaPad*
%ADD13C,0.600000*%
G04 #@! TD*
G04 #@! TA.AperFunction,Conductor*
%ADD14C,0.250000*%
G04 #@! TD*
G04 #@! TA.AperFunction,Conductor*
%ADD15C,0.200000*%
G04 #@! TD*
G04 #@! TA.AperFunction,Conductor*
%ADD16C,0.100000*%
G04 #@! TD*
G04 APERTURE END LIST*
D10*
X176990000Y-120300000D03*
X179530000Y-120300000D03*
X182070000Y-120300000D03*
D11*
X184610000Y-120300000D03*
X188420000Y-101981000D03*
D10*
X185880000Y-101981000D03*
X183340000Y-101981000D03*
X180800000Y-101981000D03*
X178260000Y-101981000D03*
X175720000Y-101981000D03*
X173180000Y-101981000D03*
D12*
X187579000Y-113244000D03*
X187579000Y-110744000D03*
D13*
X184531000Y-114554000D03*
X173482000Y-108712000D03*
X188849000Y-115316000D03*
X188849000Y-108839000D03*
X187579000Y-105029000D03*
X189103000Y-107442000D03*
X177927000Y-118745000D03*
X176276000Y-113284000D03*
X177292000Y-112268000D03*
D14*
X176990000Y-120300000D02*
X176990000Y-118920000D01*
X173180000Y-101981000D02*
X173180000Y-103203000D01*
X175720000Y-101981000D02*
X175720000Y-103203000D01*
X188420000Y-101981000D02*
X188420000Y-103203000D01*
X188849000Y-115316000D02*
X188849000Y-116078000D01*
X188849000Y-108839000D02*
X188849000Y-108077000D01*
X176276000Y-113284000D02*
X177292000Y-112268000D01*
D15*
X189875001Y-103788600D02*
X189874837Y-103789491D01*
X189875001Y-103800897D01*
X189875001Y-103806134D01*
X189875089Y-103807029D01*
X189875191Y-103814111D01*
X189876294Y-103819268D01*
X189876810Y-103824504D01*
X189878862Y-103831268D01*
X189879053Y-103832161D01*
X189880666Y-103837215D01*
X189883958Y-103848067D01*
X189884383Y-103848863D01*
X191282937Y-108231000D01*
X187198000Y-108231000D01*
X187174874Y-108233711D01*
X187156338Y-108240092D01*
X187139404Y-108249966D01*
X187124721Y-108262955D01*
X185473721Y-110040955D01*
X185463853Y-110053443D01*
X185454612Y-110070732D01*
X185448921Y-110089491D01*
X185447000Y-110109000D01*
X185447000Y-114173000D01*
X185450438Y-114198998D01*
X185457366Y-114217336D01*
X185467738Y-114233971D01*
X186737738Y-115884971D01*
X186746289Y-115894711D01*
X186761443Y-115907147D01*
X186778732Y-115916388D01*
X186797491Y-115922079D01*
X186817000Y-115924000D01*
X191296717Y-115924000D01*
X188423329Y-121575000D01*
X173176672Y-121575000D01*
X172468771Y-120182795D01*
X175800000Y-120182795D01*
X175800000Y-120417205D01*
X175845731Y-120647110D01*
X175935436Y-120863676D01*
X176065667Y-121058581D01*
X176231419Y-121224333D01*
X176426324Y-121354564D01*
X176642890Y-121444269D01*
X176872795Y-121490000D01*
X177107205Y-121490000D01*
X177337110Y-121444269D01*
X177553676Y-121354564D01*
X177748581Y-121224333D01*
X177914333Y-121058581D01*
X178044564Y-120863676D01*
X178134269Y-120647110D01*
X178180000Y-120417205D01*
X178180000Y-120186735D01*
X178380000Y-120186735D01*
X178380000Y-120413265D01*
X178424194Y-120635443D01*
X178510884Y-120844729D01*
X178636737Y-121033082D01*
X178796918Y-121193263D01*
X178985271Y-121319116D01*
X179194557Y-121405806D01*
X179416735Y-121450000D01*
X179643265Y-121450000D01*
X179865443Y-121405806D01*
X180074729Y-121319116D01*
X180263082Y-121193263D01*
X180423263Y-121033082D01*
X180549116Y-120844729D01*
X180635806Y-120635443D01*
X180680000Y-120413265D01*
X180680000Y-120186735D01*
X180920000Y-120186735D01*
X180920000Y-120413265D01*
X180964194Y-120635443D01*
X181050884Y-120844729D01*
X181176737Y-121033082D01*
X181336918Y-121193263D01*
X181525271Y-121319116D01*
X181734557Y-121405806D01*
X181956735Y-121450000D01*
X182183265Y-121450000D01*
X182405443Y-121405806D01*
X182614729Y-121319116D01*
X182803082Y-121193263D01*
X182963263Y-121033082D01*
X183089116Y-120844729D01*
X183175806Y-120635443D01*
X183220000Y-120413265D01*
X183220000Y-120186735D01*
X183175806Y-119964557D01*
X183089116Y-119755271D01*
X182963263Y-119566918D01*
X182846345Y-119450000D01*
X183458549Y-119450000D01*
X183458549Y-121150000D01*
X183464341Y-121208810D01*
X183481496Y-121265360D01*
X183509353Y-121317477D01*
X183546842Y-121363158D01*
X183592523Y-121400647D01*
X183644640Y-121428504D01*
X183701190Y-121445659D01*
X183760000Y-121451451D01*
X185460000Y-121451451D01*
X185518810Y-121445659D01*
X185575360Y-121428504D01*
X185627477Y-121400647D01*
X185673158Y-121363158D01*
X185710647Y-121317477D01*
X185738504Y-121265360D01*
X185755659Y-121208810D01*
X185761451Y-121150000D01*
X185761451Y-119450000D01*
X185755659Y-119391190D01*
X185738504Y-119334640D01*
X185710647Y-119282523D01*
X185673158Y-119236842D01*
X185627477Y-119199353D01*
X185575360Y-119171496D01*
X185518810Y-119154341D01*
X185460000Y-119148549D01*
X183760000Y-119148549D01*
X183701190Y-119154341D01*
X183644640Y-119171496D01*
X183592523Y-119199353D01*
X183546842Y-119236842D01*
X183509353Y-119282523D01*
X183481496Y-119334640D01*
X183464341Y-119391190D01*
X183458549Y-119450000D01*
X182846345Y-119450000D01*
X182803082Y-119406737D01*
X182614729Y-119280884D01*
X182405443Y-119194194D01*
X182183265Y-119150000D01*
X181956735Y-119150000D01*
X181734557Y-119194194D01*
X181525271Y-119280884D01*
X181336918Y-119406737D01*
X181176737Y-119566918D01*
X181050884Y-119755271D01*
X180964194Y-119964557D01*
X180920000Y-120186735D01*
X180680000Y-120186735D01*
X180635806Y-119964557D01*
X180549116Y-119755271D01*
X180423263Y-119566918D01*
X180263082Y-119406737D01*
X180074729Y-119280884D01*
X179865443Y-119194194D01*
X179643265Y-119150000D01*
X179416735Y-119150000D01*
X179194557Y-119194194D01*
X178985271Y-119280884D01*
X178796918Y-119406737D01*
X178636737Y-119566918D01*
X178510884Y-119755271D01*
X178424194Y-119964557D01*
X178380000Y-120186735D01*
X178180000Y-120186735D01*
X178180000Y-120182795D01*
X178134269Y-119952890D01*
X178044564Y-119736324D01*
X177914333Y-119541419D01*
X177748581Y-119375667D01*
X177553676Y-119245436D01*
X177337110Y-119155731D01*
X177107205Y-119110000D01*
X176872795Y-119110000D01*
X176642890Y-119155731D01*
X176426324Y-119245436D01*
X176231419Y-119375667D01*
X176065667Y-119541419D01*
X175935436Y-119736324D01*
X175845731Y-119952890D01*
X175800000Y-120182795D01*
X172468771Y-120182795D01*
X170225000Y-115770048D01*
X170225000Y-113224905D01*
X175676000Y-113224905D01*
X175676000Y-113343095D01*
X175699058Y-113459014D01*
X175744287Y-113568207D01*
X175809950Y-113666478D01*
X175893522Y-113750050D01*
X175991793Y-113815713D01*
X176100986Y-113860942D01*
X176216905Y-113884000D01*
X176335095Y-113884000D01*
X176451014Y-113860942D01*
X176560207Y-113815713D01*
X176658478Y-113750050D01*
X176742050Y-113666478D01*
X176807713Y-113568207D01*
X176852942Y-113459014D01*
X176876000Y-113343095D01*
X176876000Y-113285040D01*
X177293041Y-112868000D01*
X177351095Y-112868000D01*
X177467014Y-112844942D01*
X177576207Y-112799713D01*
X177674478Y-112734050D01*
X177758050Y-112650478D01*
X177823713Y-112552207D01*
X177868942Y-112443014D01*
X177892000Y-112327095D01*
X177892000Y-112208905D01*
X177868942Y-112092986D01*
X177823713Y-111983793D01*
X177758050Y-111885522D01*
X177674478Y-111801950D01*
X177576207Y-111736287D01*
X177467014Y-111691058D01*
X177351095Y-111668000D01*
X177232905Y-111668000D01*
X177116986Y-111691058D01*
X177007793Y-111736287D01*
X176909522Y-111801950D01*
X176825950Y-111885522D01*
X176760287Y-111983793D01*
X176715058Y-112092986D01*
X176692000Y-112208905D01*
X176692000Y-112266959D01*
X176274960Y-112684000D01*
X176216905Y-112684000D01*
X176100986Y-112707058D01*
X175991793Y-112752287D01*
X175893522Y-112817950D01*
X175809950Y-112901522D01*
X175744287Y-112999793D01*
X175699058Y-113108986D01*
X175676000Y-113224905D01*
X170225000Y-113224905D01*
X170225000Y-108519461D01*
X171715615Y-103848867D01*
X171716043Y-103848067D01*
X171719354Y-103837151D01*
X171720947Y-103832161D01*
X171721136Y-103831279D01*
X171723191Y-103824504D01*
X171723707Y-103819259D01*
X171724809Y-103814111D01*
X171724911Y-103807041D01*
X171725000Y-103806134D01*
X171725000Y-103800827D01*
X171725163Y-103789490D01*
X171725000Y-103788604D01*
X171725000Y-101863795D01*
X171990000Y-101863795D01*
X171990000Y-102098205D01*
X172035731Y-102328110D01*
X172125436Y-102544676D01*
X172255667Y-102739581D01*
X172421419Y-102905333D01*
X172616324Y-103035564D01*
X172832890Y-103125269D01*
X173062795Y-103171000D01*
X173297205Y-103171000D01*
X173527110Y-103125269D01*
X173743676Y-103035564D01*
X173938581Y-102905333D01*
X174104333Y-102739581D01*
X174234564Y-102544676D01*
X174324269Y-102328110D01*
X174370000Y-102098205D01*
X174370000Y-101863795D01*
X174530000Y-101863795D01*
X174530000Y-102098205D01*
X174575731Y-102328110D01*
X174665436Y-102544676D01*
X174795667Y-102739581D01*
X174961419Y-102905333D01*
X175156324Y-103035564D01*
X175372890Y-103125269D01*
X175602795Y-103171000D01*
X175837205Y-103171000D01*
X176067110Y-103125269D01*
X176283676Y-103035564D01*
X176478581Y-102905333D01*
X176644333Y-102739581D01*
X176774564Y-102544676D01*
X176864269Y-102328110D01*
X176910000Y-102098205D01*
X176910000Y-101867735D01*
X177110000Y-101867735D01*
X177110000Y-102094265D01*
X177154194Y-102316443D01*
X177240884Y-102525729D01*
X177366737Y-102714082D01*
X177526918Y-102874263D01*
X177715271Y-103000116D01*
X177924557Y-103086806D01*
X178146735Y-103131000D01*
X178373265Y-103131000D01*
X178595443Y-103086806D01*
X178804729Y-103000116D01*
X178993082Y-102874263D01*
X179153263Y-102714082D01*
X179279116Y-102525729D01*
X179365806Y-102316443D01*
X179410000Y-102094265D01*
X179410000Y-101867735D01*
X179650000Y-101867735D01*
X179650000Y-102094265D01*
X179694194Y-102316443D01*
X179780884Y-102525729D01*
X179906737Y-102714082D01*
X180066918Y-102874263D01*
X180255271Y-103000116D01*
X180464557Y-103086806D01*
X180686735Y-103131000D01*
X180913265Y-103131000D01*
X181135443Y-103086806D01*
X181344729Y-103000116D01*
X181533082Y-102874263D01*
X181693263Y-102714082D01*
X181819116Y-102525729D01*
X181905806Y-102316443D01*
X181950000Y-102094265D01*
X181950000Y-101867735D01*
X182190000Y-101867735D01*
X182190000Y-102094265D01*
X182234194Y-102316443D01*
X182320884Y-102525729D01*
X182446737Y-102714082D01*
X182606918Y-102874263D01*
X182795271Y-103000116D01*
X183004557Y-103086806D01*
X183226735Y-103131000D01*
X183453265Y-103131000D01*
X183675443Y-103086806D01*
X183884729Y-103000116D01*
X184073082Y-102874263D01*
X184233263Y-102714082D01*
X184359116Y-102525729D01*
X184445806Y-102316443D01*
X184490000Y-102094265D01*
X184490000Y-101867735D01*
X184730000Y-101867735D01*
X184730000Y-102094265D01*
X184774194Y-102316443D01*
X184860884Y-102525729D01*
X184986737Y-102714082D01*
X185146918Y-102874263D01*
X185335271Y-103000116D01*
X185544557Y-103086806D01*
X185766735Y-103131000D01*
X185993265Y-103131000D01*
X186215443Y-103086806D01*
X186424729Y-103000116D01*
X186613082Y-102874263D01*
X186773263Y-102714082D01*
X186899116Y-102525729D01*
X186985806Y-102316443D01*
X187030000Y-102094265D01*
X187030000Y-101867735D01*
X186985806Y-101645557D01*
X186899116Y-101436271D01*
X186773263Y-101247918D01*
X186656345Y-101131000D01*
X187228355Y-101131000D01*
X187228355Y-102831000D01*
X187234920Y-102897652D01*
X187254361Y-102961742D01*
X187285933Y-103020808D01*
X187328421Y-103072579D01*
X187380192Y-103115067D01*
X187439258Y-103146639D01*
X187503348Y-103166080D01*
X187570000Y-103172645D01*
X189270000Y-103172645D01*
X189336652Y-103166080D01*
X189400742Y-103146639D01*
X189459808Y-103115067D01*
X189511579Y-103072579D01*
X189554067Y-103020808D01*
X189585639Y-102961742D01*
X189605080Y-102897652D01*
X189611645Y-102831000D01*
X189611645Y-101131000D01*
X189605080Y-101064348D01*
X189585639Y-101000258D01*
X189554067Y-100941192D01*
X189511579Y-100889421D01*
X189459808Y-100846933D01*
X189400742Y-100815361D01*
X189336652Y-100795920D01*
X189270000Y-100789355D01*
X187570000Y-100789355D01*
X187503348Y-100795920D01*
X187439258Y-100815361D01*
X187380192Y-100846933D01*
X187328421Y-100889421D01*
X187285933Y-100941192D01*
X187254361Y-101000258D01*
X187234920Y-101064348D01*
X187228355Y-101131000D01*
X186656345Y-101131000D01*
X186613082Y-101087737D01*
X186424729Y-100961884D01*
X186215443Y-100875194D01*
X185993265Y-100831000D01*
X185766735Y-100831000D01*
X185544557Y-100875194D01*
X185335271Y-100961884D01*
X185146918Y-101087737D01*
X184986737Y-101247918D01*
X184860884Y-101436271D01*
X184774194Y-101645557D01*
X184730000Y-101867735D01*
X184490000Y-101867735D01*
X184445806Y-101645557D01*
X184359116Y-101436271D01*
X184233263Y-101247918D01*
X184073082Y-101087737D01*
X183884729Y-100961884D01*
X183675443Y-100875194D01*
X183453265Y-100831000D01*
X183226735Y-100831000D01*
X183004557Y-100875194D01*
X182795271Y-100961884D01*
X182606918Y-101087737D01*
X182446737Y-101247918D01*
X182320884Y-101436271D01*
X182234194Y-101645557D01*
X182190000Y-101867735D01*
X181950000Y-101867735D01*
X181905806Y-101645557D01*
X181819116Y-101436271D01*
X181693263Y-101247918D01*
X181533082Y-101087737D01*
X181344729Y-100961884D01*
X181135443Y-100875194D01*
X180913265Y-100831000D01*
X180686735Y-100831000D01*
X180464557Y-100875194D01*
X180255271Y-100961884D01*
X180066918Y-101087737D01*
X179906737Y-101247918D01*
X179780884Y-101436271D01*
X179694194Y-101645557D01*
X179650000Y-101867735D01*
X179410000Y-101867735D01*
X179365806Y-101645557D01*
X179279116Y-101436271D01*
X179153263Y-101247918D01*
X178993082Y-101087737D01*
X178804729Y-100961884D01*
X178595443Y-100875194D01*
X178373265Y-100831000D01*
X178146735Y-100831000D01*
X177924557Y-100875194D01*
X177715271Y-100961884D01*
X177526918Y-101087737D01*
X177366737Y-101247918D01*
X177240884Y-101436271D01*
X177154194Y-101645557D01*
X177110000Y-101867735D01*
X176910000Y-101867735D01*
X176910000Y-101863795D01*
X176864269Y-101633890D01*
X176774564Y-101417324D01*
X176644333Y-101222419D01*
X176478581Y-101056667D01*
X176283676Y-100926436D01*
X176067110Y-100836731D01*
X175837205Y-100791000D01*
X175602795Y-100791000D01*
X175372890Y-100836731D01*
X175156324Y-100926436D01*
X174961419Y-101056667D01*
X174795667Y-101222419D01*
X174665436Y-101417324D01*
X174575731Y-101633890D01*
X174530000Y-101863795D01*
X174370000Y-101863795D01*
X174324269Y-101633890D01*
X174234564Y-101417324D01*
X174104333Y-101222419D01*
X173938581Y-101056667D01*
X173743676Y-100926436D01*
X173527110Y-100836731D01*
X173297205Y-100791000D01*
X173062795Y-100791000D01*
X172832890Y-100836731D01*
X172616324Y-100926436D01*
X172421419Y-101056667D01*
X172255667Y-101222419D01*
X172125436Y-101417324D01*
X172035731Y-101633890D01*
X171990000Y-101863795D01*
X171725000Y-101863795D01*
X171725000Y-100725000D01*
X189875000Y-100725000D01*
X189875001Y-103788600D01*
G04 #@! TA.AperFunction,Conductor*
D16*
G36*
X189875001Y-103788600D02*
G01*
X189874837Y-103789491D01*
X189875001Y-103800897D01*
X189875001Y-103806134D01*
X189875089Y-103807029D01*
X189875191Y-103814111D01*
X189876294Y-103819268D01*
X189876810Y-103824504D01*
X189878862Y-103831268D01*
X189879053Y-103832161D01*
X189880666Y-103837215D01*
X189883958Y-103848067D01*
X189884383Y-103848863D01*
X191282937Y-108231000D01*
X187198000Y-108231000D01*
X187174874Y-108233711D01*
X187156338Y-108240092D01*
X187139404Y-108249966D01*
X187124721Y-108262955D01*
X185473721Y-110040955D01*
X185463853Y-110053443D01*
X185454612Y-110070732D01*
X185448921Y-110089491D01*
X185447000Y-110109000D01*
X185447000Y-114173000D01*
X185450438Y-114198998D01*
X185457366Y-114217336D01*
X185467738Y-114233971D01*
X186737738Y-115884971D01*
X186746289Y-115894711D01*
X186761443Y-115907147D01*
X186778732Y-115916388D01*
X186797491Y-115922079D01*
X186817000Y-115924000D01*
X191296717Y-115924000D01*
X188423329Y-121575000D01*
X173176672Y-121575000D01*
X172468771Y-120182795D01*
X175800000Y-120182795D01*
X175800000Y-120417205D01*
X175845731Y-120647110D01*
X175935436Y-120863676D01*
X176065667Y-121058581D01*
X176231419Y-121224333D01*
X176426324Y-121354564D01*
X176642890Y-121444269D01*
X176872795Y-121490000D01*
X177107205Y-121490000D01*
X177337110Y-121444269D01*
X177553676Y-121354564D01*
X177748581Y-121224333D01*
X177914333Y-121058581D01*
X178044564Y-120863676D01*
X178134269Y-120647110D01*
X178180000Y-120417205D01*
X178180000Y-120186735D01*
X178380000Y-120186735D01*
X178380000Y-120413265D01*
X178424194Y-120635443D01*
X178510884Y-120844729D01*
X178636737Y-121033082D01*
X178796918Y-121193263D01*
X178985271Y-121319116D01*
X179194557Y-121405806D01*
X179416735Y-121450000D01*
X179643265Y-121450000D01*
X179865443Y-121405806D01*
X180074729Y-121319116D01*
X180263082Y-121193263D01*
X180423263Y-121033082D01*
X180549116Y-120844729D01*
X180635806Y-120635443D01*
X180680000Y-120413265D01*
X180680000Y-120186735D01*
X180920000Y-120186735D01*
X180920000Y-120413265D01*
X180964194Y-120635443D01*
X181050884Y-120844729D01*
X181176737Y-121033082D01*
X181336918Y-121193263D01*
X181525271Y-121319116D01*
X181734557Y-121405806D01*
X181956735Y-121450000D01*
X182183265Y-121450000D01*
X182405443Y-121405806D01*
X182614729Y-121319116D01*
X182803082Y-121193263D01*
X182963263Y-121033082D01*
X183089116Y-120844729D01*
X183175806Y-120635443D01*
X183220000Y-120413265D01*
X183220000Y-120186735D01*
X183175806Y-119964557D01*
X183089116Y-119755271D01*
X182963263Y-119566918D01*
X182846345Y-119450000D01*
X183458549Y-119450000D01*
X183458549Y-121150000D01*
X183464341Y-121208810D01*
X183481496Y-121265360D01*
X183509353Y-121317477D01*
X183546842Y-121363158D01*
X183592523Y-121400647D01*
X183644640Y-121428504D01*
X183701190Y-121445659D01*
X183760000Y-121451451D01*
X185460000Y-121451451D01*
X185518810Y-121445659D01*
X185575360Y-121428504D01*
X185627477Y-121400647D01*
X185673158Y-121363158D01*
X185710647Y-121317477D01*
X185738504Y-121265360D01*
X185755659Y-121208810D01*
X185761451Y-121150000D01*
X185761451Y-119450000D01*
X185755659Y-119391190D01*
X185738504Y-119334640D01*
X185710647Y-119282523D01*
X185673158Y-119236842D01*
X185627477Y-119199353D01*
X185575360Y-119171496D01*
X185518810Y-119154341D01*
X185460000Y-119148549D01*
X183760000Y-119148549D01*
X183701190Y-119154341D01*
X183644640Y-119171496D01*
X183592523Y-119199353D01*
X183546842Y-119236842D01*
X183509353Y-119282523D01*
X183481496Y-119334640D01*
X183464341Y-119391190D01*
X183458549Y-119450000D01*
X182846345Y-119450000D01*
X182803082Y-119406737D01*
X182614729Y-119280884D01*
X182405443Y-119194194D01*
X182183265Y-119150000D01*
X181956735Y-119150000D01*
X181734557Y-119194194D01*
X181525271Y-119280884D01*
X181336918Y-119406737D01*
X181176737Y-119566918D01*
X181050884Y-119755271D01*
X180964194Y-119964557D01*
X180920000Y-120186735D01*
X180680000Y-120186735D01*
X180635806Y-119964557D01*
X180549116Y-119755271D01*
X180423263Y-119566918D01*
X180263082Y-119406737D01*
X180074729Y-119280884D01*
X179865443Y-119194194D01*
X179643265Y-119150000D01*
X179416735Y-119150000D01*
X179194557Y-119194194D01*
X178985271Y-119280884D01*
X178796918Y-119406737D01*
X178636737Y-119566918D01*
X178510884Y-119755271D01*
X178424194Y-119964557D01*
X178380000Y-120186735D01*
X178180000Y-120186735D01*
X178180000Y-120182795D01*
X178134269Y-119952890D01*
X178044564Y-119736324D01*
X177914333Y-119541419D01*
X177748581Y-119375667D01*
X177553676Y-119245436D01*
X177337110Y-119155731D01*
X177107205Y-119110000D01*
X176872795Y-119110000D01*
X176642890Y-119155731D01*
X176426324Y-119245436D01*
X176231419Y-119375667D01*
X176065667Y-119541419D01*
X175935436Y-119736324D01*
X175845731Y-119952890D01*
X175800000Y-120182795D01*
X172468771Y-120182795D01*
X170225000Y-115770048D01*
X170225000Y-113224905D01*
X175676000Y-113224905D01*
X175676000Y-113343095D01*
X175699058Y-113459014D01*
X175744287Y-113568207D01*
X175809950Y-113666478D01*
X175893522Y-113750050D01*
X175991793Y-113815713D01*
X176100986Y-113860942D01*
X176216905Y-113884000D01*
X176335095Y-113884000D01*
X176451014Y-113860942D01*
X176560207Y-113815713D01*
X176658478Y-113750050D01*
X176742050Y-113666478D01*
X176807713Y-113568207D01*
X176852942Y-113459014D01*
X176876000Y-113343095D01*
X176876000Y-113285040D01*
X177293041Y-112868000D01*
X177351095Y-112868000D01*
X177467014Y-112844942D01*
X177576207Y-112799713D01*
X177674478Y-112734050D01*
X177758050Y-112650478D01*
X177823713Y-112552207D01*
X177868942Y-112443014D01*
X177892000Y-112327095D01*
X177892000Y-112208905D01*
X177868942Y-112092986D01*
X177823713Y-111983793D01*
X177758050Y-111885522D01*
X177674478Y-111801950D01*
X177576207Y-111736287D01*
X177467014Y-111691058D01*
X177351095Y-111668000D01*
X177232905Y-111668000D01*
X177116986Y-111691058D01*
X177007793Y-111736287D01*
X176909522Y-111801950D01*
X176825950Y-111885522D01*
X176760287Y-111983793D01*
X176715058Y-112092986D01*
X176692000Y-112208905D01*
X176692000Y-112266959D01*
X176274960Y-112684000D01*
X176216905Y-112684000D01*
X176100986Y-112707058D01*
X175991793Y-112752287D01*
X175893522Y-112817950D01*
X175809950Y-112901522D01*
X175744287Y-112999793D01*
X175699058Y-113108986D01*
X175676000Y-113224905D01*
X170225000Y-113224905D01*
X170225000Y-108519461D01*
X171715615Y-103848867D01*
X171716043Y-103848067D01*
X171719354Y-103837151D01*
X171720947Y-103832161D01*
X171721136Y-103831279D01*
X171723191Y-103824504D01*
X171723707Y-103819259D01*
X171724809Y-103814111D01*
X171724911Y-103807041D01*
X171725000Y-103806134D01*
X171725000Y-103800827D01*
X171725163Y-103789490D01*
X171725000Y-103788604D01*
X171725000Y-101863795D01*
X171990000Y-101863795D01*
X171990000Y-102098205D01*
X172035731Y-102328110D01*
X172125436Y-102544676D01*
X172255667Y-102739581D01*
X172421419Y-102905333D01*
X172616324Y-103035564D01*
X172832890Y-103125269D01*
X173062795Y-103171000D01*
X173297205Y-103171000D01*
X173527110Y-103125269D01*
X173743676Y-103035564D01*
X173938581Y-102905333D01*
X174104333Y-102739581D01*
X174234564Y-102544676D01*
X174324269Y-102328110D01*
X174370000Y-102098205D01*
X174370000Y-101863795D01*
X174530000Y-101863795D01*
X174530000Y-102098205D01*
X174575731Y-102328110D01*
X174665436Y-102544676D01*
X174795667Y-102739581D01*
X174961419Y-102905333D01*
X175156324Y-103035564D01*
X175372890Y-103125269D01*
X175602795Y-103171000D01*
X175837205Y-103171000D01*
X176067110Y-103125269D01*
X176283676Y-103035564D01*
X176478581Y-102905333D01*
X176644333Y-102739581D01*
X176774564Y-102544676D01*
X176864269Y-102328110D01*
X176910000Y-102098205D01*
X176910000Y-101867735D01*
X177110000Y-101867735D01*
X177110000Y-102094265D01*
X177154194Y-102316443D01*
X177240884Y-102525729D01*
X177366737Y-102714082D01*
X177526918Y-102874263D01*
X177715271Y-103000116D01*
X177924557Y-103086806D01*
X178146735Y-103131000D01*
X178373265Y-103131000D01*
X178595443Y-103086806D01*
X178804729Y-103000116D01*
X178993082Y-102874263D01*
X179153263Y-102714082D01*
X179279116Y-102525729D01*
X179365806Y-102316443D01*
X179410000Y-102094265D01*
X179410000Y-101867735D01*
X179650000Y-101867735D01*
X179650000Y-102094265D01*
X179694194Y-102316443D01*
X179780884Y-102525729D01*
X179906737Y-102714082D01*
X180066918Y-102874263D01*
X180255271Y-103000116D01*
X180464557Y-103086806D01*
X180686735Y-103131000D01*
X180913265Y-103131000D01*
X181135443Y-103086806D01*
X181344729Y-103000116D01*
X181533082Y-102874263D01*
X181693263Y-102714082D01*
X181819116Y-102525729D01*
X181905806Y-102316443D01*
X181950000Y-102094265D01*
X181950000Y-101867735D01*
X182190000Y-101867735D01*
X182190000Y-102094265D01*
X182234194Y-102316443D01*
X182320884Y-102525729D01*
X182446737Y-102714082D01*
X182606918Y-102874263D01*
X182795271Y-103000116D01*
X183004557Y-103086806D01*
X183226735Y-103131000D01*
X183453265Y-103131000D01*
X183675443Y-103086806D01*
X183884729Y-103000116D01*
X184073082Y-102874263D01*
X184233263Y-102714082D01*
X184359116Y-102525729D01*
X184445806Y-102316443D01*
X184490000Y-102094265D01*
X184490000Y-101867735D01*
X184730000Y-101867735D01*
X184730000Y-102094265D01*
X184774194Y-102316443D01*
X184860884Y-102525729D01*
X184986737Y-102714082D01*
X185146918Y-102874263D01*
X185335271Y-103000116D01*
X185544557Y-103086806D01*
X185766735Y-103131000D01*
X185993265Y-103131000D01*
X186215443Y-103086806D01*
X186424729Y-103000116D01*
X186613082Y-102874263D01*
X186773263Y-102714082D01*
X186899116Y-102525729D01*
X186985806Y-102316443D01*
X187030000Y-102094265D01*
X187030000Y-101867735D01*
X186985806Y-101645557D01*
X186899116Y-101436271D01*
X186773263Y-101247918D01*
X186656345Y-101131000D01*
X187228355Y-101131000D01*
X187228355Y-102831000D01*
X187234920Y-102897652D01*
X187254361Y-102961742D01*
X187285933Y-103020808D01*
X187328421Y-103072579D01*
X187380192Y-103115067D01*
X187439258Y-103146639D01*
X187503348Y-103166080D01*
X187570000Y-103172645D01*
X189270000Y-103172645D01*
X189336652Y-103166080D01*
X189400742Y-103146639D01*
X189459808Y-103115067D01*
X189511579Y-103072579D01*
X189554067Y-103020808D01*
X189585639Y-102961742D01*
X189605080Y-102897652D01*
X189611645Y-102831000D01*
X189611645Y-101131000D01*
X189605080Y-101064348D01*
X189585639Y-101000258D01*
X189554067Y-100941192D01*
X189511579Y-100889421D01*
X189459808Y-100846933D01*
X189400742Y-100815361D01*
X189336652Y-100795920D01*
X189270000Y-100789355D01*
X187570000Y-100789355D01*
X187503348Y-100795920D01*
X187439258Y-100815361D01*
X187380192Y-100846933D01*
X187328421Y-100889421D01*
X187285933Y-100941192D01*
X187254361Y-101000258D01*
X187234920Y-101064348D01*
X187228355Y-101131000D01*
X186656345Y-101131000D01*
X186613082Y-101087737D01*
X186424729Y-100961884D01*
X186215443Y-100875194D01*
X185993265Y-100831000D01*
X185766735Y-100831000D01*
X185544557Y-100875194D01*
X185335271Y-100961884D01*
X185146918Y-101087737D01*
X184986737Y-101247918D01*
X184860884Y-101436271D01*
X184774194Y-101645557D01*
X184730000Y-101867735D01*
X184490000Y-101867735D01*
X184445806Y-101645557D01*
X184359116Y-101436271D01*
X184233263Y-101247918D01*
X184073082Y-101087737D01*
X183884729Y-100961884D01*
X183675443Y-100875194D01*
X183453265Y-100831000D01*
X183226735Y-100831000D01*
X183004557Y-100875194D01*
X182795271Y-100961884D01*
X182606918Y-101087737D01*
X182446737Y-101247918D01*
X182320884Y-101436271D01*
X182234194Y-101645557D01*
X182190000Y-101867735D01*
X181950000Y-101867735D01*
X181905806Y-101645557D01*
X181819116Y-101436271D01*
X181693263Y-101247918D01*
X181533082Y-101087737D01*
X181344729Y-100961884D01*
X181135443Y-100875194D01*
X180913265Y-100831000D01*
X180686735Y-100831000D01*
X180464557Y-100875194D01*
X180255271Y-100961884D01*
X180066918Y-101087737D01*
X179906737Y-101247918D01*
X179780884Y-101436271D01*
X179694194Y-101645557D01*
X179650000Y-101867735D01*
X179410000Y-101867735D01*
X179365806Y-101645557D01*
X179279116Y-101436271D01*
X179153263Y-101247918D01*
X178993082Y-101087737D01*
X178804729Y-100961884D01*
X178595443Y-100875194D01*
X178373265Y-100831000D01*
X178146735Y-100831000D01*
X177924557Y-100875194D01*
X177715271Y-100961884D01*
X177526918Y-101087737D01*
X177366737Y-101247918D01*
X177240884Y-101436271D01*
X177154194Y-101645557D01*
X177110000Y-101867735D01*
X176910000Y-101867735D01*
X176910000Y-101863795D01*
X176864269Y-101633890D01*
X176774564Y-101417324D01*
X176644333Y-101222419D01*
X176478581Y-101056667D01*
X176283676Y-100926436D01*
X176067110Y-100836731D01*
X175837205Y-100791000D01*
X175602795Y-100791000D01*
X175372890Y-100836731D01*
X175156324Y-100926436D01*
X174961419Y-101056667D01*
X174795667Y-101222419D01*
X174665436Y-101417324D01*
X174575731Y-101633890D01*
X174530000Y-101863795D01*
X174370000Y-101863795D01*
X174324269Y-101633890D01*
X174234564Y-101417324D01*
X174104333Y-101222419D01*
X173938581Y-101056667D01*
X173743676Y-100926436D01*
X173527110Y-100836731D01*
X173297205Y-100791000D01*
X173062795Y-100791000D01*
X172832890Y-100836731D01*
X172616324Y-100926436D01*
X172421419Y-101056667D01*
X172255667Y-101222419D01*
X172125436Y-101417324D01*
X172035731Y-101633890D01*
X171990000Y-101863795D01*
X171725000Y-101863795D01*
X171725000Y-100725000D01*
X189875000Y-100725000D01*
X189875001Y-103788600D01*
G37*
G04 #@! TD.AperFunction*
M02*
