%FSLAX45Y45*%
G04 Gerber Fmt 4.5, Leading zero omitted, Abs format (unit mm)*
G04 Created by KiCad (PCBNEW (5.1.10)-1) date 2021-07-25 13:55:40*
%MOMM*%
%LPD*%
G01*
G04 APERTURE LIST*
%TA.AperFunction,Profile*%
%ADD10C,0.050000*%
%TD*%
%ADD11C,0.200000*%
%ADD12C,0.300000*%
G04 APERTURE END LIST*
D10*
X17010000Y-10850000D02*
X17010000Y-11580000D01*
X17160000Y-10380000D02*
X17010000Y-10850000D01*
X19150000Y-10850000D02*
X19150000Y-11580000D01*
X19000000Y-10380000D02*
X19150000Y-10850000D01*
X17160000Y-10060000D02*
X17160000Y-10380000D01*
X19000000Y-10060000D02*
X19000000Y-10380000D01*
X17310000Y-12170000D02*
X18850000Y-12170000D01*
X17010000Y-11580000D02*
X17310000Y-12170000D01*
X19150000Y-11580000D02*
X18850000Y-12170000D01*
X17160000Y-10060000D02*
X19000000Y-10060000D01*
D11*
D12*
X17293928Y-12638214D02*
X17293928Y-12338214D01*
X17365357Y-12338214D01*
X17408214Y-12352500D01*
X17436786Y-12381071D01*
X17451071Y-12409643D01*
X17465357Y-12466786D01*
X17465357Y-12509643D01*
X17451071Y-12566786D01*
X17436786Y-12595357D01*
X17408214Y-12623929D01*
X17365357Y-12638214D01*
X17293928Y-12638214D01*
X17593928Y-12638214D02*
X17593928Y-12438214D01*
X17593928Y-12495357D02*
X17608214Y-12466786D01*
X17622500Y-12452500D01*
X17651071Y-12438214D01*
X17679643Y-12438214D01*
X17779643Y-12638214D02*
X17779643Y-12438214D01*
X17779643Y-12338214D02*
X17765357Y-12352500D01*
X17779643Y-12366786D01*
X17793928Y-12352500D01*
X17779643Y-12338214D01*
X17779643Y-12366786D01*
X17965357Y-12638214D02*
X17936786Y-12623929D01*
X17922500Y-12595357D01*
X17922500Y-12338214D01*
X18122500Y-12638214D02*
X18093928Y-12623929D01*
X18079643Y-12595357D01*
X18079643Y-12338214D01*
X18465357Y-12638214D02*
X18465357Y-12338214D01*
X18565357Y-12552500D01*
X18665357Y-12338214D01*
X18665357Y-12638214D01*
X18936786Y-12638214D02*
X18936786Y-12481071D01*
X18922500Y-12452500D01*
X18893928Y-12438214D01*
X18836786Y-12438214D01*
X18808214Y-12452500D01*
X18936786Y-12623929D02*
X18908214Y-12638214D01*
X18836786Y-12638214D01*
X18808214Y-12623929D01*
X18793928Y-12595357D01*
X18793928Y-12566786D01*
X18808214Y-12538214D01*
X18836786Y-12523929D01*
X18908214Y-12523929D01*
X18936786Y-12509643D01*
X19079643Y-12438214D02*
X19079643Y-12738214D01*
X19079643Y-12452500D02*
X19108214Y-12438214D01*
X19165357Y-12438214D01*
X19193928Y-12452500D01*
X19208214Y-12466786D01*
X19222500Y-12495357D01*
X19222500Y-12581071D01*
X19208214Y-12609643D01*
X19193928Y-12623929D01*
X19165357Y-12638214D01*
X19108214Y-12638214D01*
X19079643Y-12623929D01*
X19351071Y-12609643D02*
X19365357Y-12623929D01*
X19351071Y-12638214D01*
X19336786Y-12623929D01*
X19351071Y-12609643D01*
X19351071Y-12638214D01*
X19351071Y-12452500D02*
X19365357Y-12466786D01*
X19351071Y-12481071D01*
X19336786Y-12466786D01*
X19351071Y-12452500D01*
X19351071Y-12481071D01*
M02*
