%FSLAX45Y45*%
G04 Gerber Fmt 4.5, Leading zero omitted, Abs format (unit mm)*
G04 Created by KiCad (PCBNEW (5.1.10)-1) date 2021-07-25 13:55:40*
%MOMM*%
%LPD*%
G01*
G04 APERTURE LIST*
%TA.AperFunction,Profile*%
%ADD10C,0.050000*%
%TD*%
%ADD11C,0.200000*%
%ADD12C,0.300000*%
G04 APERTURE END LIST*
D10*
X17010000Y-10850000D02*
X17010000Y-11580000D01*
X17160000Y-10380000D02*
X17010000Y-10850000D01*
X19150000Y-10850000D02*
X19150000Y-11580000D01*
X19000000Y-10380000D02*
X19150000Y-10850000D01*
X17160000Y-10060000D02*
X17160000Y-10380000D01*
X19000000Y-10060000D02*
X19000000Y-10380000D01*
X17310000Y-12170000D02*
X18850000Y-12170000D01*
X17010000Y-11580000D02*
X17310000Y-12170000D01*
X19150000Y-11580000D02*
X18850000Y-12170000D01*
X17160000Y-10060000D02*
X19000000Y-10060000D01*
D11*
X17333200Y-10856200D02*
X17363200Y-10886200D01*
X17363200Y-10856200D02*
X17333200Y-10886200D01*
X17612600Y-11313400D02*
X17642600Y-11343400D01*
X17642600Y-11313400D02*
X17612600Y-11343400D01*
X17714200Y-11211800D02*
X17744200Y-11241800D01*
X17744200Y-11211800D02*
X17714200Y-11241800D01*
X17777700Y-11859500D02*
X17807700Y-11889500D01*
X17807700Y-11859500D02*
X17777700Y-11889500D01*
X18438100Y-11440400D02*
X18468100Y-11470400D01*
X18468100Y-11440400D02*
X18438100Y-11470400D01*
X18742900Y-10487900D02*
X18772900Y-10517900D01*
X18772900Y-10487900D02*
X18742900Y-10517900D01*
X18869900Y-10868900D02*
X18899900Y-10898900D01*
X18899900Y-10868900D02*
X18869900Y-10898900D01*
X18869900Y-11516600D02*
X18899900Y-11546600D01*
X18899900Y-11516600D02*
X18869900Y-11546600D01*
X18895300Y-10729200D02*
X18925300Y-10759200D01*
X18925300Y-10729200D02*
X18895300Y-10759200D01*
X18782900Y-11324400D02*
G75*
G03*
X18782900Y-11324400I-25000J0D01*
G01*
X18757900Y-11046900D02*
X18757900Y-11101900D01*
X18730400Y-11074400D02*
X18785400Y-11074400D01*
X17353356Y-10233456D02*
X17353356Y-10162744D01*
X17282644Y-10162744D01*
X17282644Y-10233456D01*
X17353356Y-10233456D01*
X17607356Y-10233456D02*
X17607356Y-10162744D01*
X17536644Y-10162744D01*
X17536644Y-10233456D01*
X17607356Y-10233456D01*
X17734356Y-12065356D02*
X17734356Y-11994644D01*
X17663644Y-11994644D01*
X17663644Y-12065356D01*
X17734356Y-12065356D01*
X17861356Y-10233456D02*
X17861356Y-10162744D01*
X17790644Y-10162744D01*
X17790644Y-10233456D01*
X17861356Y-10233456D01*
X17988356Y-12065356D02*
X17988356Y-11994644D01*
X17917644Y-11994644D01*
X17917644Y-12065356D01*
X17988356Y-12065356D01*
X18115356Y-10233456D02*
X18115356Y-10162744D01*
X18044644Y-10162744D01*
X18044644Y-10233456D01*
X18115356Y-10233456D01*
X18242356Y-12065356D02*
X18242356Y-11994644D01*
X18171644Y-11994644D01*
X18171644Y-12065356D01*
X18242356Y-12065356D01*
X18369356Y-10233456D02*
X18369356Y-10162744D01*
X18298644Y-10162744D01*
X18298644Y-10233456D01*
X18369356Y-10233456D01*
X18496356Y-12065356D02*
X18496356Y-11994644D01*
X18425644Y-11994644D01*
X18425644Y-12065356D01*
X18496356Y-12065356D01*
X18623356Y-10233456D02*
X18623356Y-10162744D01*
X18552644Y-10162744D01*
X18552644Y-10233456D01*
X18623356Y-10233456D01*
X18877356Y-10233456D02*
X18877356Y-10162744D01*
X18806644Y-10162744D01*
X18806644Y-10233456D01*
X18877356Y-10233456D01*
D12*
X17293928Y-12638214D02*
X17293928Y-12338214D01*
X17365357Y-12338214D01*
X17408214Y-12352500D01*
X17436786Y-12381071D01*
X17451071Y-12409643D01*
X17465357Y-12466786D01*
X17465357Y-12509643D01*
X17451071Y-12566786D01*
X17436786Y-12595357D01*
X17408214Y-12623929D01*
X17365357Y-12638214D01*
X17293928Y-12638214D01*
X17593928Y-12638214D02*
X17593928Y-12438214D01*
X17593928Y-12495357D02*
X17608214Y-12466786D01*
X17622500Y-12452500D01*
X17651071Y-12438214D01*
X17679643Y-12438214D01*
X17779643Y-12638214D02*
X17779643Y-12438214D01*
X17779643Y-12338214D02*
X17765357Y-12352500D01*
X17779643Y-12366786D01*
X17793928Y-12352500D01*
X17779643Y-12338214D01*
X17779643Y-12366786D01*
X17965357Y-12638214D02*
X17936786Y-12623929D01*
X17922500Y-12595357D01*
X17922500Y-12338214D01*
X18122500Y-12638214D02*
X18093928Y-12623929D01*
X18079643Y-12595357D01*
X18079643Y-12338214D01*
X18465357Y-12638214D02*
X18465357Y-12338214D01*
X18565357Y-12552500D01*
X18665357Y-12338214D01*
X18665357Y-12638214D01*
X18936786Y-12638214D02*
X18936786Y-12481071D01*
X18922500Y-12452500D01*
X18893928Y-12438214D01*
X18836786Y-12438214D01*
X18808214Y-12452500D01*
X18936786Y-12623929D02*
X18908214Y-12638214D01*
X18836786Y-12638214D01*
X18808214Y-12623929D01*
X18793928Y-12595357D01*
X18793928Y-12566786D01*
X18808214Y-12538214D01*
X18836786Y-12523929D01*
X18908214Y-12523929D01*
X18936786Y-12509643D01*
X19079643Y-12438214D02*
X19079643Y-12738214D01*
X19079643Y-12452500D02*
X19108214Y-12438214D01*
X19165357Y-12438214D01*
X19193928Y-12452500D01*
X19208214Y-12466786D01*
X19222500Y-12495357D01*
X19222500Y-12581071D01*
X19208214Y-12609643D01*
X19193928Y-12623929D01*
X19165357Y-12638214D01*
X19108214Y-12638214D01*
X19079643Y-12623929D01*
X19351071Y-12609643D02*
X19365357Y-12623929D01*
X19351071Y-12638214D01*
X19336786Y-12623929D01*
X19351071Y-12609643D01*
X19351071Y-12638214D01*
X19351071Y-12452500D02*
X19365357Y-12466786D01*
X19351071Y-12481071D01*
X19336786Y-12466786D01*
X19351071Y-12452500D01*
X19351071Y-12481071D01*
X16977500Y-13117500D02*
X17007500Y-13147500D01*
X17007500Y-13117500D02*
X16977500Y-13147500D01*
X17351071Y-12968214D02*
X17379643Y-12968214D01*
X17408214Y-12982500D01*
X17422500Y-12996786D01*
X17436786Y-13025357D01*
X17451071Y-13082500D01*
X17451071Y-13153929D01*
X17436786Y-13211071D01*
X17422500Y-13239643D01*
X17408214Y-13253929D01*
X17379643Y-13268214D01*
X17351071Y-13268214D01*
X17322500Y-13253929D01*
X17308214Y-13239643D01*
X17293928Y-13211071D01*
X17279643Y-13153929D01*
X17279643Y-13082500D01*
X17293928Y-13025357D01*
X17308214Y-12996786D01*
X17322500Y-12982500D01*
X17351071Y-12968214D01*
X17579643Y-13239643D02*
X17593928Y-13253929D01*
X17579643Y-13268214D01*
X17565357Y-13253929D01*
X17579643Y-13239643D01*
X17579643Y-13268214D01*
X17693928Y-12968214D02*
X17879643Y-12968214D01*
X17779643Y-13082500D01*
X17822500Y-13082500D01*
X17851071Y-13096786D01*
X17865357Y-13111071D01*
X17879643Y-13139643D01*
X17879643Y-13211071D01*
X17865357Y-13239643D01*
X17851071Y-13253929D01*
X17822500Y-13268214D01*
X17736786Y-13268214D01*
X17708214Y-13253929D01*
X17693928Y-13239643D01*
X18065357Y-12968214D02*
X18093928Y-12968214D01*
X18122500Y-12982500D01*
X18136786Y-12996786D01*
X18151071Y-13025357D01*
X18165357Y-13082500D01*
X18165357Y-13153929D01*
X18151071Y-13211071D01*
X18136786Y-13239643D01*
X18122500Y-13253929D01*
X18093928Y-13268214D01*
X18065357Y-13268214D01*
X18036786Y-13253929D01*
X18022500Y-13239643D01*
X18008214Y-13211071D01*
X17993928Y-13153929D01*
X17993928Y-13082500D01*
X18008214Y-13025357D01*
X18022500Y-12996786D01*
X18036786Y-12982500D01*
X18065357Y-12968214D01*
X18351071Y-12968214D02*
X18379643Y-12968214D01*
X18408214Y-12982500D01*
X18422500Y-12996786D01*
X18436786Y-13025357D01*
X18451071Y-13082500D01*
X18451071Y-13153929D01*
X18436786Y-13211071D01*
X18422500Y-13239643D01*
X18408214Y-13253929D01*
X18379643Y-13268214D01*
X18351071Y-13268214D01*
X18322500Y-13253929D01*
X18308214Y-13239643D01*
X18293928Y-13211071D01*
X18279643Y-13153929D01*
X18279643Y-13082500D01*
X18293928Y-13025357D01*
X18308214Y-12996786D01*
X18322500Y-12982500D01*
X18351071Y-12968214D01*
X18579643Y-13268214D02*
X18579643Y-13068214D01*
X18579643Y-13096786D02*
X18593928Y-13082500D01*
X18622500Y-13068214D01*
X18665357Y-13068214D01*
X18693928Y-13082500D01*
X18708214Y-13111071D01*
X18708214Y-13268214D01*
X18708214Y-13111071D02*
X18722500Y-13082500D01*
X18751071Y-13068214D01*
X18793928Y-13068214D01*
X18822500Y-13082500D01*
X18836786Y-13111071D01*
X18836786Y-13268214D01*
X18979643Y-13268214D02*
X18979643Y-13068214D01*
X18979643Y-13096786D02*
X18993928Y-13082500D01*
X19022500Y-13068214D01*
X19065357Y-13068214D01*
X19093928Y-13082500D01*
X19108214Y-13111071D01*
X19108214Y-13268214D01*
X19108214Y-13111071D02*
X19122500Y-13082500D01*
X19151071Y-13068214D01*
X19193928Y-13068214D01*
X19222500Y-13082500D01*
X19236786Y-13111071D01*
X19236786Y-13268214D01*
X19822500Y-12953929D02*
X19565357Y-13339643D01*
X20208214Y-12968214D02*
X20236786Y-12968214D01*
X20265357Y-12982500D01*
X20279643Y-12996786D01*
X20293928Y-13025357D01*
X20308214Y-13082500D01*
X20308214Y-13153929D01*
X20293928Y-13211071D01*
X20279643Y-13239643D01*
X20265357Y-13253929D01*
X20236786Y-13268214D01*
X20208214Y-13268214D01*
X20179643Y-13253929D01*
X20165357Y-13239643D01*
X20151071Y-13211071D01*
X20136786Y-13153929D01*
X20136786Y-13082500D01*
X20151071Y-13025357D01*
X20165357Y-12996786D01*
X20179643Y-12982500D01*
X20208214Y-12968214D01*
X20436786Y-13239643D02*
X20451071Y-13253929D01*
X20436786Y-13268214D01*
X20422500Y-13253929D01*
X20436786Y-13239643D01*
X20436786Y-13268214D01*
X20636786Y-12968214D02*
X20665357Y-12968214D01*
X20693928Y-12982500D01*
X20708214Y-12996786D01*
X20722500Y-13025357D01*
X20736786Y-13082500D01*
X20736786Y-13153929D01*
X20722500Y-13211071D01*
X20708214Y-13239643D01*
X20693928Y-13253929D01*
X20665357Y-13268214D01*
X20636786Y-13268214D01*
X20608214Y-13253929D01*
X20593928Y-13239643D01*
X20579643Y-13211071D01*
X20565357Y-13153929D01*
X20565357Y-13082500D01*
X20579643Y-13025357D01*
X20593928Y-12996786D01*
X20608214Y-12982500D01*
X20636786Y-12968214D01*
X21022500Y-13268214D02*
X20851071Y-13268214D01*
X20936786Y-13268214D02*
X20936786Y-12968214D01*
X20908214Y-13011071D01*
X20879643Y-13039643D01*
X20851071Y-13053929D01*
X21308214Y-13268214D02*
X21136786Y-13268214D01*
X21222500Y-13268214D02*
X21222500Y-12968214D01*
X21193928Y-13011071D01*
X21165357Y-13039643D01*
X21136786Y-13053929D01*
X21479643Y-13096786D02*
X21451071Y-13082500D01*
X21436786Y-13068214D01*
X21422500Y-13039643D01*
X21422500Y-13025357D01*
X21436786Y-12996786D01*
X21451071Y-12982500D01*
X21479643Y-12968214D01*
X21536786Y-12968214D01*
X21565357Y-12982500D01*
X21579643Y-12996786D01*
X21593928Y-13025357D01*
X21593928Y-13039643D01*
X21579643Y-13068214D01*
X21565357Y-13082500D01*
X21536786Y-13096786D01*
X21479643Y-13096786D01*
X21451071Y-13111071D01*
X21436786Y-13125357D01*
X21422500Y-13153929D01*
X21422500Y-13211071D01*
X21436786Y-13239643D01*
X21451071Y-13253929D01*
X21479643Y-13268214D01*
X21536786Y-13268214D01*
X21565357Y-13253929D01*
X21579643Y-13239643D01*
X21593928Y-13211071D01*
X21593928Y-13153929D01*
X21579643Y-13125357D01*
X21565357Y-13111071D01*
X21536786Y-13096786D01*
X21708214Y-12968214D02*
X21708214Y-13025357D01*
X21822500Y-12968214D02*
X21822500Y-13025357D01*
X22265357Y-13382500D02*
X22251071Y-13368214D01*
X22222500Y-13325357D01*
X22208214Y-13296786D01*
X22193928Y-13253929D01*
X22179643Y-13182500D01*
X22179643Y-13125357D01*
X22193928Y-13053929D01*
X22208214Y-13011071D01*
X22222500Y-12982500D01*
X22251071Y-12939643D01*
X22265357Y-12925357D01*
X22393928Y-13268214D02*
X22451071Y-13268214D01*
X22479643Y-13253929D01*
X22493928Y-13239643D01*
X22522500Y-13196786D01*
X22536786Y-13139643D01*
X22536786Y-13025357D01*
X22522500Y-12996786D01*
X22508214Y-12982500D01*
X22479643Y-12968214D01*
X22422500Y-12968214D01*
X22393928Y-12982500D01*
X22379643Y-12996786D01*
X22365357Y-13025357D01*
X22365357Y-13096786D01*
X22379643Y-13125357D01*
X22393928Y-13139643D01*
X22422500Y-13153929D01*
X22479643Y-13153929D01*
X22508214Y-13139643D01*
X22522500Y-13125357D01*
X22536786Y-13096786D01*
X22893928Y-13268214D02*
X22893928Y-12968214D01*
X23022500Y-13268214D02*
X23022500Y-13111071D01*
X23008214Y-13082500D01*
X22979643Y-13068214D01*
X22936786Y-13068214D01*
X22908214Y-13082500D01*
X22893928Y-13096786D01*
X23208214Y-13268214D02*
X23179643Y-13253929D01*
X23165357Y-13239643D01*
X23151071Y-13211071D01*
X23151071Y-13125357D01*
X23165357Y-13096786D01*
X23179643Y-13082500D01*
X23208214Y-13068214D01*
X23251071Y-13068214D01*
X23279643Y-13082500D01*
X23293928Y-13096786D01*
X23308214Y-13125357D01*
X23308214Y-13211071D01*
X23293928Y-13239643D01*
X23279643Y-13253929D01*
X23251071Y-13268214D01*
X23208214Y-13268214D01*
X23479643Y-13268214D02*
X23451071Y-13253929D01*
X23436786Y-13225357D01*
X23436786Y-12968214D01*
X23708214Y-13253929D02*
X23679643Y-13268214D01*
X23622500Y-13268214D01*
X23593928Y-13253929D01*
X23579643Y-13225357D01*
X23579643Y-13111071D01*
X23593928Y-13082500D01*
X23622500Y-13068214D01*
X23679643Y-13068214D01*
X23708214Y-13082500D01*
X23722500Y-13111071D01*
X23722500Y-13139643D01*
X23579643Y-13168214D01*
X23836786Y-13253929D02*
X23865357Y-13268214D01*
X23922500Y-13268214D01*
X23951071Y-13253929D01*
X23965357Y-13225357D01*
X23965357Y-13211071D01*
X23951071Y-13182500D01*
X23922500Y-13168214D01*
X23879643Y-13168214D01*
X23851071Y-13153929D01*
X23836786Y-13125357D01*
X23836786Y-13111071D01*
X23851071Y-13082500D01*
X23879643Y-13068214D01*
X23922500Y-13068214D01*
X23951071Y-13082500D01*
X24065357Y-13382500D02*
X24079643Y-13368214D01*
X24108214Y-13325357D01*
X24122500Y-13296786D01*
X24136786Y-13253929D01*
X24151071Y-13182500D01*
X24151071Y-13125357D01*
X24136786Y-13053929D01*
X24122500Y-13011071D01*
X24108214Y-12982500D01*
X24079643Y-12939643D01*
X24065357Y-12925357D01*
X17007500Y-13528500D02*
G75*
G03*
X17007500Y-13528500I-25000J0D01*
G01*
X17351071Y-13364214D02*
X17379643Y-13364214D01*
X17408214Y-13378500D01*
X17422500Y-13392786D01*
X17436786Y-13421357D01*
X17451071Y-13478500D01*
X17451071Y-13549929D01*
X17436786Y-13607071D01*
X17422500Y-13635643D01*
X17408214Y-13649929D01*
X17379643Y-13664214D01*
X17351071Y-13664214D01*
X17322500Y-13649929D01*
X17308214Y-13635643D01*
X17293928Y-13607071D01*
X17279643Y-13549929D01*
X17279643Y-13478500D01*
X17293928Y-13421357D01*
X17308214Y-13392786D01*
X17322500Y-13378500D01*
X17351071Y-13364214D01*
X17579643Y-13635643D02*
X17593928Y-13649929D01*
X17579643Y-13664214D01*
X17565357Y-13649929D01*
X17579643Y-13635643D01*
X17579643Y-13664214D01*
X17865357Y-13364214D02*
X17722500Y-13364214D01*
X17708214Y-13507071D01*
X17722500Y-13492786D01*
X17751071Y-13478500D01*
X17822500Y-13478500D01*
X17851071Y-13492786D01*
X17865357Y-13507071D01*
X17879643Y-13535643D01*
X17879643Y-13607071D01*
X17865357Y-13635643D01*
X17851071Y-13649929D01*
X17822500Y-13664214D01*
X17751071Y-13664214D01*
X17722500Y-13649929D01*
X17708214Y-13635643D01*
X18065357Y-13364214D02*
X18093928Y-13364214D01*
X18122500Y-13378500D01*
X18136786Y-13392786D01*
X18151071Y-13421357D01*
X18165357Y-13478500D01*
X18165357Y-13549929D01*
X18151071Y-13607071D01*
X18136786Y-13635643D01*
X18122500Y-13649929D01*
X18093928Y-13664214D01*
X18065357Y-13664214D01*
X18036786Y-13649929D01*
X18022500Y-13635643D01*
X18008214Y-13607071D01*
X17993928Y-13549929D01*
X17993928Y-13478500D01*
X18008214Y-13421357D01*
X18022500Y-13392786D01*
X18036786Y-13378500D01*
X18065357Y-13364214D01*
X18351071Y-13364214D02*
X18379643Y-13364214D01*
X18408214Y-13378500D01*
X18422500Y-13392786D01*
X18436786Y-13421357D01*
X18451071Y-13478500D01*
X18451071Y-13549929D01*
X18436786Y-13607071D01*
X18422500Y-13635643D01*
X18408214Y-13649929D01*
X18379643Y-13664214D01*
X18351071Y-13664214D01*
X18322500Y-13649929D01*
X18308214Y-13635643D01*
X18293928Y-13607071D01*
X18279643Y-13549929D01*
X18279643Y-13478500D01*
X18293928Y-13421357D01*
X18308214Y-13392786D01*
X18322500Y-13378500D01*
X18351071Y-13364214D01*
X18579643Y-13664214D02*
X18579643Y-13464214D01*
X18579643Y-13492786D02*
X18593928Y-13478500D01*
X18622500Y-13464214D01*
X18665357Y-13464214D01*
X18693928Y-13478500D01*
X18708214Y-13507071D01*
X18708214Y-13664214D01*
X18708214Y-13507071D02*
X18722500Y-13478500D01*
X18751071Y-13464214D01*
X18793928Y-13464214D01*
X18822500Y-13478500D01*
X18836786Y-13507071D01*
X18836786Y-13664214D01*
X18979643Y-13664214D02*
X18979643Y-13464214D01*
X18979643Y-13492786D02*
X18993928Y-13478500D01*
X19022500Y-13464214D01*
X19065357Y-13464214D01*
X19093928Y-13478500D01*
X19108214Y-13507071D01*
X19108214Y-13664214D01*
X19108214Y-13507071D02*
X19122500Y-13478500D01*
X19151071Y-13464214D01*
X19193928Y-13464214D01*
X19222500Y-13478500D01*
X19236786Y-13507071D01*
X19236786Y-13664214D01*
X19822500Y-13349929D02*
X19565357Y-13735643D01*
X20208214Y-13364214D02*
X20236786Y-13364214D01*
X20265357Y-13378500D01*
X20279643Y-13392786D01*
X20293928Y-13421357D01*
X20308214Y-13478500D01*
X20308214Y-13549929D01*
X20293928Y-13607071D01*
X20279643Y-13635643D01*
X20265357Y-13649929D01*
X20236786Y-13664214D01*
X20208214Y-13664214D01*
X20179643Y-13649929D01*
X20165357Y-13635643D01*
X20151071Y-13607071D01*
X20136786Y-13549929D01*
X20136786Y-13478500D01*
X20151071Y-13421357D01*
X20165357Y-13392786D01*
X20179643Y-13378500D01*
X20208214Y-13364214D01*
X20436786Y-13635643D02*
X20451071Y-13649929D01*
X20436786Y-13664214D01*
X20422500Y-13649929D01*
X20436786Y-13635643D01*
X20436786Y-13664214D01*
X20636786Y-13364214D02*
X20665357Y-13364214D01*
X20693928Y-13378500D01*
X20708214Y-13392786D01*
X20722500Y-13421357D01*
X20736786Y-13478500D01*
X20736786Y-13549929D01*
X20722500Y-13607071D01*
X20708214Y-13635643D01*
X20693928Y-13649929D01*
X20665357Y-13664214D01*
X20636786Y-13664214D01*
X20608214Y-13649929D01*
X20593928Y-13635643D01*
X20579643Y-13607071D01*
X20565357Y-13549929D01*
X20565357Y-13478500D01*
X20579643Y-13421357D01*
X20593928Y-13392786D01*
X20608214Y-13378500D01*
X20636786Y-13364214D01*
X21022500Y-13664214D02*
X20851071Y-13664214D01*
X20936786Y-13664214D02*
X20936786Y-13364214D01*
X20908214Y-13407071D01*
X20879643Y-13435643D01*
X20851071Y-13449929D01*
X21165357Y-13664214D02*
X21222500Y-13664214D01*
X21251071Y-13649929D01*
X21265357Y-13635643D01*
X21293928Y-13592786D01*
X21308214Y-13535643D01*
X21308214Y-13421357D01*
X21293928Y-13392786D01*
X21279643Y-13378500D01*
X21251071Y-13364214D01*
X21193928Y-13364214D01*
X21165357Y-13378500D01*
X21151071Y-13392786D01*
X21136786Y-13421357D01*
X21136786Y-13492786D01*
X21151071Y-13521357D01*
X21165357Y-13535643D01*
X21193928Y-13549929D01*
X21251071Y-13549929D01*
X21279643Y-13535643D01*
X21293928Y-13521357D01*
X21308214Y-13492786D01*
X21408214Y-13364214D02*
X21608214Y-13364214D01*
X21479643Y-13664214D01*
X21708214Y-13364214D02*
X21708214Y-13421357D01*
X21822500Y-13364214D02*
X21822500Y-13421357D01*
X22265357Y-13778500D02*
X22251071Y-13764214D01*
X22222500Y-13721357D01*
X22208214Y-13692786D01*
X22193928Y-13649929D01*
X22179643Y-13578500D01*
X22179643Y-13521357D01*
X22193928Y-13449929D01*
X22208214Y-13407071D01*
X22222500Y-13378500D01*
X22251071Y-13335643D01*
X22265357Y-13321357D01*
X22536786Y-13664214D02*
X22365357Y-13664214D01*
X22451071Y-13664214D02*
X22451071Y-13364214D01*
X22422500Y-13407071D01*
X22393928Y-13435643D01*
X22365357Y-13449929D01*
X22893928Y-13664214D02*
X22893928Y-13364214D01*
X23022500Y-13664214D02*
X23022500Y-13507071D01*
X23008214Y-13478500D01*
X22979643Y-13464214D01*
X22936786Y-13464214D01*
X22908214Y-13478500D01*
X22893928Y-13492786D01*
X23208214Y-13664214D02*
X23179643Y-13649929D01*
X23165357Y-13635643D01*
X23151071Y-13607071D01*
X23151071Y-13521357D01*
X23165357Y-13492786D01*
X23179643Y-13478500D01*
X23208214Y-13464214D01*
X23251071Y-13464214D01*
X23279643Y-13478500D01*
X23293928Y-13492786D01*
X23308214Y-13521357D01*
X23308214Y-13607071D01*
X23293928Y-13635643D01*
X23279643Y-13649929D01*
X23251071Y-13664214D01*
X23208214Y-13664214D01*
X23479643Y-13664214D02*
X23451071Y-13649929D01*
X23436786Y-13621357D01*
X23436786Y-13364214D01*
X23708214Y-13649929D02*
X23679643Y-13664214D01*
X23622500Y-13664214D01*
X23593928Y-13649929D01*
X23579643Y-13621357D01*
X23579643Y-13507071D01*
X23593928Y-13478500D01*
X23622500Y-13464214D01*
X23679643Y-13464214D01*
X23708214Y-13478500D01*
X23722500Y-13507071D01*
X23722500Y-13535643D01*
X23579643Y-13564214D01*
X23822500Y-13778500D02*
X23836786Y-13764214D01*
X23865357Y-13721357D01*
X23879643Y-13692786D01*
X23893928Y-13649929D01*
X23908214Y-13578500D01*
X23908214Y-13521357D01*
X23893928Y-13449929D01*
X23879643Y-13407071D01*
X23865357Y-13378500D01*
X23836786Y-13335643D01*
X23822500Y-13321357D01*
X16980000Y-13897000D02*
X16980000Y-13952000D01*
X16952500Y-13924500D02*
X17007500Y-13924500D01*
X17351071Y-13760214D02*
X17379643Y-13760214D01*
X17408214Y-13774500D01*
X17422500Y-13788786D01*
X17436786Y-13817357D01*
X17451071Y-13874500D01*
X17451071Y-13945929D01*
X17436786Y-14003071D01*
X17422500Y-14031643D01*
X17408214Y-14045929D01*
X17379643Y-14060214D01*
X17351071Y-14060214D01*
X17322500Y-14045929D01*
X17308214Y-14031643D01*
X17293928Y-14003071D01*
X17279643Y-13945929D01*
X17279643Y-13874500D01*
X17293928Y-13817357D01*
X17308214Y-13788786D01*
X17322500Y-13774500D01*
X17351071Y-13760214D01*
X17579643Y-14031643D02*
X17593928Y-14045929D01*
X17579643Y-14060214D01*
X17565357Y-14045929D01*
X17579643Y-14031643D01*
X17579643Y-14060214D01*
X17865357Y-13760214D02*
X17722500Y-13760214D01*
X17708214Y-13903071D01*
X17722500Y-13888786D01*
X17751071Y-13874500D01*
X17822500Y-13874500D01*
X17851071Y-13888786D01*
X17865357Y-13903071D01*
X17879643Y-13931643D01*
X17879643Y-14003071D01*
X17865357Y-14031643D01*
X17851071Y-14045929D01*
X17822500Y-14060214D01*
X17751071Y-14060214D01*
X17722500Y-14045929D01*
X17708214Y-14031643D01*
X18151071Y-13760214D02*
X18008214Y-13760214D01*
X17993928Y-13903071D01*
X18008214Y-13888786D01*
X18036786Y-13874500D01*
X18108214Y-13874500D01*
X18136786Y-13888786D01*
X18151071Y-13903071D01*
X18165357Y-13931643D01*
X18165357Y-14003071D01*
X18151071Y-14031643D01*
X18136786Y-14045929D01*
X18108214Y-14060214D01*
X18036786Y-14060214D01*
X18008214Y-14045929D01*
X17993928Y-14031643D01*
X18351071Y-13760214D02*
X18379643Y-13760214D01*
X18408214Y-13774500D01*
X18422500Y-13788786D01*
X18436786Y-13817357D01*
X18451071Y-13874500D01*
X18451071Y-13945929D01*
X18436786Y-14003071D01*
X18422500Y-14031643D01*
X18408214Y-14045929D01*
X18379643Y-14060214D01*
X18351071Y-14060214D01*
X18322500Y-14045929D01*
X18308214Y-14031643D01*
X18293928Y-14003071D01*
X18279643Y-13945929D01*
X18279643Y-13874500D01*
X18293928Y-13817357D01*
X18308214Y-13788786D01*
X18322500Y-13774500D01*
X18351071Y-13760214D01*
X18579643Y-14060214D02*
X18579643Y-13860214D01*
X18579643Y-13888786D02*
X18593928Y-13874500D01*
X18622500Y-13860214D01*
X18665357Y-13860214D01*
X18693928Y-13874500D01*
X18708214Y-13903071D01*
X18708214Y-14060214D01*
X18708214Y-13903071D02*
X18722500Y-13874500D01*
X18751071Y-13860214D01*
X18793928Y-13860214D01*
X18822500Y-13874500D01*
X18836786Y-13903071D01*
X18836786Y-14060214D01*
X18979643Y-14060214D02*
X18979643Y-13860214D01*
X18979643Y-13888786D02*
X18993928Y-13874500D01*
X19022500Y-13860214D01*
X19065357Y-13860214D01*
X19093928Y-13874500D01*
X19108214Y-13903071D01*
X19108214Y-14060214D01*
X19108214Y-13903071D02*
X19122500Y-13874500D01*
X19151071Y-13860214D01*
X19193928Y-13860214D01*
X19222500Y-13874500D01*
X19236786Y-13903071D01*
X19236786Y-14060214D01*
X19822500Y-13745929D02*
X19565357Y-14131643D01*
X20208214Y-13760214D02*
X20236786Y-13760214D01*
X20265357Y-13774500D01*
X20279643Y-13788786D01*
X20293928Y-13817357D01*
X20308214Y-13874500D01*
X20308214Y-13945929D01*
X20293928Y-14003071D01*
X20279643Y-14031643D01*
X20265357Y-14045929D01*
X20236786Y-14060214D01*
X20208214Y-14060214D01*
X20179643Y-14045929D01*
X20165357Y-14031643D01*
X20151071Y-14003071D01*
X20136786Y-13945929D01*
X20136786Y-13874500D01*
X20151071Y-13817357D01*
X20165357Y-13788786D01*
X20179643Y-13774500D01*
X20208214Y-13760214D01*
X20436786Y-14031643D02*
X20451071Y-14045929D01*
X20436786Y-14060214D01*
X20422500Y-14045929D01*
X20436786Y-14031643D01*
X20436786Y-14060214D01*
X20636786Y-13760214D02*
X20665357Y-13760214D01*
X20693928Y-13774500D01*
X20708214Y-13788786D01*
X20722500Y-13817357D01*
X20736786Y-13874500D01*
X20736786Y-13945929D01*
X20722500Y-14003071D01*
X20708214Y-14031643D01*
X20693928Y-14045929D01*
X20665357Y-14060214D01*
X20636786Y-14060214D01*
X20608214Y-14045929D01*
X20593928Y-14031643D01*
X20579643Y-14003071D01*
X20565357Y-13945929D01*
X20565357Y-13874500D01*
X20579643Y-13817357D01*
X20593928Y-13788786D01*
X20608214Y-13774500D01*
X20636786Y-13760214D01*
X20851071Y-13788786D02*
X20865357Y-13774500D01*
X20893928Y-13760214D01*
X20965357Y-13760214D01*
X20993928Y-13774500D01*
X21008214Y-13788786D01*
X21022500Y-13817357D01*
X21022500Y-13845929D01*
X21008214Y-13888786D01*
X20836786Y-14060214D01*
X21022500Y-14060214D01*
X21308214Y-14060214D02*
X21136786Y-14060214D01*
X21222500Y-14060214D02*
X21222500Y-13760214D01*
X21193928Y-13803071D01*
X21165357Y-13831643D01*
X21136786Y-13845929D01*
X21408214Y-13760214D02*
X21608214Y-13760214D01*
X21479643Y-14060214D01*
X21708214Y-13760214D02*
X21708214Y-13817357D01*
X21822500Y-13760214D02*
X21822500Y-13817357D01*
X22265357Y-14174500D02*
X22251071Y-14160214D01*
X22222500Y-14117357D01*
X22208214Y-14088786D01*
X22193928Y-14045929D01*
X22179643Y-13974500D01*
X22179643Y-13917357D01*
X22193928Y-13845929D01*
X22208214Y-13803071D01*
X22222500Y-13774500D01*
X22251071Y-13731643D01*
X22265357Y-13717357D01*
X22536786Y-14060214D02*
X22365357Y-14060214D01*
X22451071Y-14060214D02*
X22451071Y-13760214D01*
X22422500Y-13803071D01*
X22393928Y-13831643D01*
X22365357Y-13845929D01*
X22893928Y-14060214D02*
X22893928Y-13760214D01*
X23022500Y-14060214D02*
X23022500Y-13903071D01*
X23008214Y-13874500D01*
X22979643Y-13860214D01*
X22936786Y-13860214D01*
X22908214Y-13874500D01*
X22893928Y-13888786D01*
X23208214Y-14060214D02*
X23179643Y-14045929D01*
X23165357Y-14031643D01*
X23151071Y-14003071D01*
X23151071Y-13917357D01*
X23165357Y-13888786D01*
X23179643Y-13874500D01*
X23208214Y-13860214D01*
X23251071Y-13860214D01*
X23279643Y-13874500D01*
X23293928Y-13888786D01*
X23308214Y-13917357D01*
X23308214Y-14003071D01*
X23293928Y-14031643D01*
X23279643Y-14045929D01*
X23251071Y-14060214D01*
X23208214Y-14060214D01*
X23479643Y-14060214D02*
X23451071Y-14045929D01*
X23436786Y-14017357D01*
X23436786Y-13760214D01*
X23708214Y-14045929D02*
X23679643Y-14060214D01*
X23622500Y-14060214D01*
X23593928Y-14045929D01*
X23579643Y-14017357D01*
X23579643Y-13903071D01*
X23593928Y-13874500D01*
X23622500Y-13860214D01*
X23679643Y-13860214D01*
X23708214Y-13874500D01*
X23722500Y-13903071D01*
X23722500Y-13931643D01*
X23579643Y-13960214D01*
X23822500Y-14174500D02*
X23836786Y-14160214D01*
X23865357Y-14117357D01*
X23879643Y-14088786D01*
X23893928Y-14045929D01*
X23908214Y-13974500D01*
X23908214Y-13917357D01*
X23893928Y-13845929D01*
X23879643Y-13803071D01*
X23865357Y-13774500D01*
X23836786Y-13731643D01*
X23822500Y-13717357D01*
X16992856Y-14355856D02*
X16992856Y-14285144D01*
X16922144Y-14285144D01*
X16922144Y-14355856D01*
X16992856Y-14355856D01*
X17451071Y-14456214D02*
X17279643Y-14456214D01*
X17365357Y-14456214D02*
X17365357Y-14156214D01*
X17336786Y-14199071D01*
X17308214Y-14227643D01*
X17279643Y-14241929D01*
X17579643Y-14427643D02*
X17593928Y-14441929D01*
X17579643Y-14456214D01*
X17565357Y-14441929D01*
X17579643Y-14427643D01*
X17579643Y-14456214D01*
X17779643Y-14156214D02*
X17808214Y-14156214D01*
X17836786Y-14170500D01*
X17851071Y-14184786D01*
X17865357Y-14213357D01*
X17879643Y-14270500D01*
X17879643Y-14341929D01*
X17865357Y-14399071D01*
X17851071Y-14427643D01*
X17836786Y-14441929D01*
X17808214Y-14456214D01*
X17779643Y-14456214D01*
X17751071Y-14441929D01*
X17736786Y-14427643D01*
X17722500Y-14399071D01*
X17708214Y-14341929D01*
X17708214Y-14270500D01*
X17722500Y-14213357D01*
X17736786Y-14184786D01*
X17751071Y-14170500D01*
X17779643Y-14156214D01*
X18065357Y-14156214D02*
X18093928Y-14156214D01*
X18122500Y-14170500D01*
X18136786Y-14184786D01*
X18151071Y-14213357D01*
X18165357Y-14270500D01*
X18165357Y-14341929D01*
X18151071Y-14399071D01*
X18136786Y-14427643D01*
X18122500Y-14441929D01*
X18093928Y-14456214D01*
X18065357Y-14456214D01*
X18036786Y-14441929D01*
X18022500Y-14427643D01*
X18008214Y-14399071D01*
X17993928Y-14341929D01*
X17993928Y-14270500D01*
X18008214Y-14213357D01*
X18022500Y-14184786D01*
X18036786Y-14170500D01*
X18065357Y-14156214D01*
X18351071Y-14156214D02*
X18379643Y-14156214D01*
X18408214Y-14170500D01*
X18422500Y-14184786D01*
X18436786Y-14213357D01*
X18451071Y-14270500D01*
X18451071Y-14341929D01*
X18436786Y-14399071D01*
X18422500Y-14427643D01*
X18408214Y-14441929D01*
X18379643Y-14456214D01*
X18351071Y-14456214D01*
X18322500Y-14441929D01*
X18308214Y-14427643D01*
X18293928Y-14399071D01*
X18279643Y-14341929D01*
X18279643Y-14270500D01*
X18293928Y-14213357D01*
X18308214Y-14184786D01*
X18322500Y-14170500D01*
X18351071Y-14156214D01*
X18579643Y-14456214D02*
X18579643Y-14256214D01*
X18579643Y-14284786D02*
X18593928Y-14270500D01*
X18622500Y-14256214D01*
X18665357Y-14256214D01*
X18693928Y-14270500D01*
X18708214Y-14299071D01*
X18708214Y-14456214D01*
X18708214Y-14299071D02*
X18722500Y-14270500D01*
X18751071Y-14256214D01*
X18793928Y-14256214D01*
X18822500Y-14270500D01*
X18836786Y-14299071D01*
X18836786Y-14456214D01*
X18979643Y-14456214D02*
X18979643Y-14256214D01*
X18979643Y-14284786D02*
X18993928Y-14270500D01*
X19022500Y-14256214D01*
X19065357Y-14256214D01*
X19093928Y-14270500D01*
X19108214Y-14299071D01*
X19108214Y-14456214D01*
X19108214Y-14299071D02*
X19122500Y-14270500D01*
X19151071Y-14256214D01*
X19193928Y-14256214D01*
X19222500Y-14270500D01*
X19236786Y-14299071D01*
X19236786Y-14456214D01*
X19822500Y-14141929D02*
X19565357Y-14527643D01*
X20208214Y-14156214D02*
X20236786Y-14156214D01*
X20265357Y-14170500D01*
X20279643Y-14184786D01*
X20293928Y-14213357D01*
X20308214Y-14270500D01*
X20308214Y-14341929D01*
X20293928Y-14399071D01*
X20279643Y-14427643D01*
X20265357Y-14441929D01*
X20236786Y-14456214D01*
X20208214Y-14456214D01*
X20179643Y-14441929D01*
X20165357Y-14427643D01*
X20151071Y-14399071D01*
X20136786Y-14341929D01*
X20136786Y-14270500D01*
X20151071Y-14213357D01*
X20165357Y-14184786D01*
X20179643Y-14170500D01*
X20208214Y-14156214D01*
X20436786Y-14427643D02*
X20451071Y-14441929D01*
X20436786Y-14456214D01*
X20422500Y-14441929D01*
X20436786Y-14427643D01*
X20436786Y-14456214D01*
X20636786Y-14156214D02*
X20665357Y-14156214D01*
X20693928Y-14170500D01*
X20708214Y-14184786D01*
X20722500Y-14213357D01*
X20736786Y-14270500D01*
X20736786Y-14341929D01*
X20722500Y-14399071D01*
X20708214Y-14427643D01*
X20693928Y-14441929D01*
X20665357Y-14456214D01*
X20636786Y-14456214D01*
X20608214Y-14441929D01*
X20593928Y-14427643D01*
X20579643Y-14399071D01*
X20565357Y-14341929D01*
X20565357Y-14270500D01*
X20579643Y-14213357D01*
X20593928Y-14184786D01*
X20608214Y-14170500D01*
X20636786Y-14156214D01*
X20836786Y-14156214D02*
X21022500Y-14156214D01*
X20922500Y-14270500D01*
X20965357Y-14270500D01*
X20993928Y-14284786D01*
X21008214Y-14299071D01*
X21022500Y-14327643D01*
X21022500Y-14399071D01*
X21008214Y-14427643D01*
X20993928Y-14441929D01*
X20965357Y-14456214D01*
X20879643Y-14456214D01*
X20851071Y-14441929D01*
X20836786Y-14427643D01*
X21165357Y-14456214D02*
X21222500Y-14456214D01*
X21251071Y-14441929D01*
X21265357Y-14427643D01*
X21293928Y-14384786D01*
X21308214Y-14327643D01*
X21308214Y-14213357D01*
X21293928Y-14184786D01*
X21279643Y-14170500D01*
X21251071Y-14156214D01*
X21193928Y-14156214D01*
X21165357Y-14170500D01*
X21151071Y-14184786D01*
X21136786Y-14213357D01*
X21136786Y-14284786D01*
X21151071Y-14313357D01*
X21165357Y-14327643D01*
X21193928Y-14341929D01*
X21251071Y-14341929D01*
X21279643Y-14327643D01*
X21293928Y-14313357D01*
X21308214Y-14284786D01*
X21565357Y-14256214D02*
X21565357Y-14456214D01*
X21493928Y-14141929D02*
X21422500Y-14356214D01*
X21608214Y-14356214D01*
X21708214Y-14156214D02*
X21708214Y-14213357D01*
X21822500Y-14156214D02*
X21822500Y-14213357D01*
X22265357Y-14570500D02*
X22251071Y-14556214D01*
X22222500Y-14513357D01*
X22208214Y-14484786D01*
X22193928Y-14441929D01*
X22179643Y-14370500D01*
X22179643Y-14313357D01*
X22193928Y-14241929D01*
X22208214Y-14199071D01*
X22222500Y-14170500D01*
X22251071Y-14127643D01*
X22265357Y-14113357D01*
X22536786Y-14456214D02*
X22365357Y-14456214D01*
X22451071Y-14456214D02*
X22451071Y-14156214D01*
X22422500Y-14199071D01*
X22393928Y-14227643D01*
X22365357Y-14241929D01*
X22822500Y-14456214D02*
X22651071Y-14456214D01*
X22736786Y-14456214D02*
X22736786Y-14156214D01*
X22708214Y-14199071D01*
X22679643Y-14227643D01*
X22651071Y-14241929D01*
X23179643Y-14456214D02*
X23179643Y-14156214D01*
X23308214Y-14456214D02*
X23308214Y-14299071D01*
X23293928Y-14270500D01*
X23265357Y-14256214D01*
X23222500Y-14256214D01*
X23193928Y-14270500D01*
X23179643Y-14284786D01*
X23493928Y-14456214D02*
X23465357Y-14441929D01*
X23451071Y-14427643D01*
X23436786Y-14399071D01*
X23436786Y-14313357D01*
X23451071Y-14284786D01*
X23465357Y-14270500D01*
X23493928Y-14256214D01*
X23536786Y-14256214D01*
X23565357Y-14270500D01*
X23579643Y-14284786D01*
X23593928Y-14313357D01*
X23593928Y-14399071D01*
X23579643Y-14427643D01*
X23565357Y-14441929D01*
X23536786Y-14456214D01*
X23493928Y-14456214D01*
X23765357Y-14456214D02*
X23736786Y-14441929D01*
X23722500Y-14413357D01*
X23722500Y-14156214D01*
X23993928Y-14441929D02*
X23965357Y-14456214D01*
X23908214Y-14456214D01*
X23879643Y-14441929D01*
X23865357Y-14413357D01*
X23865357Y-14299071D01*
X23879643Y-14270500D01*
X23908214Y-14256214D01*
X23965357Y-14256214D01*
X23993928Y-14270500D01*
X24008214Y-14299071D01*
X24008214Y-14327643D01*
X23865357Y-14356214D01*
X24122500Y-14441929D02*
X24151071Y-14456214D01*
X24208214Y-14456214D01*
X24236786Y-14441929D01*
X24251071Y-14413357D01*
X24251071Y-14399071D01*
X24236786Y-14370500D01*
X24208214Y-14356214D01*
X24165357Y-14356214D01*
X24136786Y-14341929D01*
X24122500Y-14313357D01*
X24122500Y-14299071D01*
X24136786Y-14270500D01*
X24165357Y-14256214D01*
X24208214Y-14256214D01*
X24236786Y-14270500D01*
X24351071Y-14570500D02*
X24365357Y-14556214D01*
X24393928Y-14513357D01*
X24408214Y-14484786D01*
X24422500Y-14441929D01*
X24436786Y-14370500D01*
X24436786Y-14313357D01*
X24422500Y-14241929D01*
X24408214Y-14199071D01*
X24393928Y-14170500D01*
X24365357Y-14127643D01*
X24351071Y-14113357D01*
M02*
