M48
; DRILL file {KiCad (5.1.10)-1} date 07/25/21 13:55:39
; FORMAT={-:-/ absolute / metric / decimal}
; #@! TF.CreationDate,2021-07-25T13:55:39-07:00
; #@! TF.GenerationSoftware,Kicad,Pcbnew,(5.1.10)-1
; #@! TF.FileFunction,Plated,1,2,PTH
FMAT,2
METRIC
T1C0.300
T2C0.500
T3C0.550
T4C1.000
%
G90
G05
T1
X173.482Y-108.712
X176.276Y-113.284
X177.292Y-112.268
X177.927Y-118.745
X184.531Y-114.554
X187.579Y-105.029
X188.849Y-108.839
X188.849Y-115.316
X189.103Y-107.442
T2
X187.579Y-113.244
T3
X187.579Y-110.744
T4
X173.18Y-101.981
X175.72Y-101.981
X176.99Y-120.3
X178.26Y-101.981
X179.53Y-120.3
X180.8Y-101.981
X182.07Y-120.3
X183.34Y-101.981
X184.61Y-120.3
X185.88Y-101.981
X188.42Y-101.981
T0
M30
